<?xml version="1.0" encoding="utf-8"?>
<!-- Generator: Adobe Illustrator 16.0.0, SVG Export Plug-In . SVG Version: 6.00 Build 0)  -->
<!DOCTYPE svg PUBLIC "-//W3C//DTD SVG 1.1//EN" "http://www.w3.org/Graphics/SVG/1.1/DTD/svg11.dtd">
<svg version="1.1" id="Layer_1" xmlns="http://www.w3.org/2000/svg" xmlns:xlink="http://www.w3.org/1999/xlink" x="0px" y="0px"
	 width="1500px" height="500px" viewBox="0 0 1500 500" enable-background="new 0 0 1500 500" xml:space="preserve">
<text transform="matrix(1 0 0 1 665.3823 1035.2148)" fill="#FF0000" font-family="'Montserrat-Regular'" font-size="68.3876"> </text>
<g>
	<polygon fill="none" points="662.826,177.675 727.453,237.035 792.558,177.675 727.453,118.794 	"/>
	<path fill="#FF0000" d="M1035.107,333.257h33.668L727.453,22.094L386.609,333.257h30.344
		c-0.438,28.563,75.661,142.985,75.661,142.985v-9.545V333.066l117.554-107.041l117.285,107.231l117.763-107.231l117.764,107.231
		h0.054l0.002,0.024v120.996C963.035,454.277,1025.599,370.834,1035.107,333.257z M727.453,237.035l-64.626-59.36l64.626-58.881
		l65.105,58.881L727.453,237.035z"/>
</g>
<path fill="none" stroke="#111111" stroke-width="85.1506" stroke-miterlimit="10" d="M1367.657-228.011"/>
</svg>
