<?xml version="1.0" encoding="utf-8"?>
<!-- Generator: Adobe Illustrator 16.0.0, SVG Export Plug-In . SVG Version: 6.00 Build 0)  -->
<!DOCTYPE svg PUBLIC "-//W3C//DTD SVG 1.1//EN" "http://www.w3.org/Graphics/SVG/1.1/DTD/svg11.dtd">
<svg version="1.1" xmlns="http://www.w3.org/2000/svg" xmlns:xlink="http://www.w3.org/1999/xlink" x="0px" y="0px"
	 width="1623.738px" height="271.494px" viewBox="0 0 1623.738 271.494" enable-background="new 0 0 1623.738 271.494"
	 xml:space="preserve">
<g id="Layer_4">
</g>
<g id="Layer_3">
	<g>
		<path fill="#FFFFFF" d="M500.948,188.48l-6.035,39.814c-0.078,0.625-0.362,1.152-0.85,1.582c-0.508,0.41-1.094,0.615-1.758,0.615
			c-1.348,0-2.217-0.674-2.607-2.021l-8.965-32.256c-0.02-0.137-0.069-0.205-0.146-0.205c-0.098,0-0.166,0.068-0.205,0.205
			l-8.936,32.256c-0.391,1.348-1.25,2.021-2.578,2.021c-0.684,0-1.27-0.205-1.758-0.615c-0.508-0.43-0.801-0.957-0.879-1.582
			l-6.006-39.814h2.52l5.947,39.492c0,0.02,0.059,0.029,0.176,0.029c0.059,0,0.107-0.068,0.146-0.205l8.965-32.256
			c0.391-1.348,1.26-2.021,2.607-2.021c1.328,0,2.178,0.674,2.549,2.021l8.965,32.256c0.039,0.137,0.107,0.205,0.205,0.205
			c0.039,0,0.078-0.01,0.117-0.029l5.977-39.492H500.948z"/>
		<path fill="#FFFFFF" d="M528.692,225.54l0.908-0.85l1.729,1.787l-0.879,0.85c-2.559,2.5-6.514,3.75-11.865,3.75
			c-3.359,0-6.318-0.537-8.877-1.611c-3.887-1.621-5.83-4.043-5.83-7.266v-14.502c0-2.852,1.455-5.098,4.365-6.738
			c2.559-1.426,5.673-2.139,9.346-2.139c3.652,0,6.757,0.713,9.316,2.139c2.91,1.641,4.365,3.887,4.365,6.738v4.424
			c0,1.133-0.4,2.09-1.201,2.871c-0.801,0.801-1.758,1.201-2.871,1.201h-20.83v6.006c0,2.109,1.436,3.77,4.307,4.98
			c2.89,1.211,6.201,1.65,9.932,1.318C524.336,228.167,527.032,227.181,528.692,225.54z M506.368,213.704h20.83
			c0.429,0,0.801-0.156,1.113-0.469c0.312-0.313,0.469-0.684,0.469-1.113v-4.424c0-1.914-1.084-3.457-3.252-4.629
			c-2.149-1.172-4.795-1.758-7.939-1.758c-3.008,0-5.577,0.547-7.705,1.641c-2.344,1.191-3.516,2.773-3.516,4.746V213.704z"/>
		<path fill="#FFFFFF" d="M549.727,198.792c3.652,0,6.757,0.713,9.316,2.139c2.91,1.641,4.365,3.887,4.365,6.738v14.502
			c0,2.852-1.455,5.098-4.365,6.738c-2.559,1.426-5.665,2.139-9.316,2.139c-4.883,0-8.624-1.162-11.221-3.486v2.93h-2.49V188.48
			h2.49v13.799C541.104,199.954,544.844,198.792,549.727,198.792z M560.918,207.669c0-1.973-1.172-3.555-3.516-4.746
			c-2.129-1.094-4.688-1.641-7.676-1.641c-3.008,0-5.577,0.547-7.705,1.641c-2.344,1.191-3.516,2.773-3.516,4.746v14.502
			c0,1.973,1.172,3.555,3.516,4.746c2.128,1.094,4.697,1.641,7.705,1.641c2.988,0,5.547-0.547,7.676-1.641
			c2.344-1.191,3.516-2.773,3.516-4.746V207.669z"/>
		<path fill="#FFFFFF" d="M609.17,223.284c-0.195,2.402-0.088,3.975,0.322,4.717h1.025v2.49h-1.23c-0.625,0-1.153-0.234-1.582-0.703
			c-0.43-0.469-0.732-1.221-0.908-2.256c-2.598,2.344-6.338,3.516-11.221,3.516c-3.672,0-6.787-0.713-9.346-2.139
			c-2.911-1.641-4.365-3.887-4.365-6.738v-3.047c0-2.852,1.455-5.088,4.365-6.709c2.559-1.445,5.673-2.168,9.346-2.168
			c4.863,0,8.594,1.162,11.191,3.486v-6.064c0-2.129-1.318-3.789-3.955-4.98c-2.578-1.152-5.577-1.592-8.994-1.318
			c-3.418,0.293-5.996,1.201-7.734,2.725l-0.938,0.82l-1.641-1.875l0.938-0.82c2.109-1.855,5.107-2.969,8.994-3.34
			c3.886-0.352,7.354,0.156,10.4,1.523c3.613,1.641,5.42,4.063,5.42,7.266v14.883C609.239,222.825,609.209,223.07,609.17,223.284z
			 M595.577,228.558c2.793,0,5.225-0.488,7.295-1.465c2.285-1.055,3.564-2.461,3.838-4.219c0-0.098,0.01-0.176,0.029-0.234
			l0.029-0.264c0-0.117,0-0.186,0-0.205v-3.047c0-1.973-1.172-3.555-3.516-4.746c-2.129-1.074-4.688-1.611-7.676-1.611
			c-3.008,0-5.577,0.537-7.705,1.611c-2.344,1.191-3.516,2.773-3.516,4.746v3.047c0,1.973,1.172,3.555,3.516,4.746
			C590,228.011,592.569,228.558,595.577,228.558z"/>
		<path fill="#FFFFFF" d="M628.741,198.792c3.691,0,6.826,0.713,9.404,2.139c2.949,1.641,4.424,3.887,4.424,6.738v22.822h-2.49
			v-22.822c0-1.973-1.191-3.555-3.574-4.746c-2.149-1.094-4.736-1.641-7.764-1.641c-3.047,0-5.635,0.547-7.764,1.641
			c-2.383,1.191-3.574,2.773-3.574,4.746v22.822h-2.49v-31.143h2.49v2.93C620.04,199.954,623.819,198.792,628.741,198.792z"/>
		<path fill="#FFFFFF" d="M672.745,188.48h2.49v42.012h-2.49v-2.93c-2.598,2.324-6.328,3.486-11.191,3.486
			c-3.672,0-6.787-0.713-9.346-2.139c-2.911-1.641-4.365-3.887-4.365-6.738v-14.502c0-2.852,1.455-5.098,4.365-6.738
			c2.559-1.426,5.673-2.139,9.346-2.139c4.863,0,8.594,1.162,11.191,3.486V188.48z M661.553,228.558
			c2.988,0,5.547-0.547,7.676-1.641c2.344-1.191,3.516-2.773,3.516-4.746v-14.502c0-1.973-1.172-3.555-3.516-4.746
			c-2.129-1.094-4.688-1.641-7.676-1.641c-3.008,0-5.577,0.547-7.705,1.641c-2.344,1.191-3.516,2.773-3.516,4.746v14.502
			c0,1.973,1.172,3.555,3.516,4.746C655.977,228.011,658.545,228.558,661.553,228.558z"/>
		<path fill="#FFFFFF" d="M728.672,230.491l-4.805-39.639c-0.04-0.02-0.088-0.029-0.146-0.029c-0.078,0-0.137,0.068-0.176,0.205
			l-8.965,32.256c-0.352,1.348-1.211,2.021-2.578,2.021c-1.348,0-2.208-0.674-2.578-2.021l-8.965-32.285
			c-0.04-0.117-0.098-0.176-0.176-0.176c-0.078,0-0.137,0.02-0.176,0.059l-4.775,39.609h-2.52l4.834-39.961
			c0.078-0.625,0.371-1.152,0.879-1.582c0.508-0.41,1.094-0.615,1.758-0.615c1.367,0,2.227,0.674,2.578,2.021l8.965,32.256
			c0.039,0.117,0.098,0.176,0.176,0.176c0.078,0,0.136-0.049,0.176-0.146l8.965-32.285c0.371-1.348,1.23-2.021,2.578-2.021
			c0.684,0,1.27,0.205,1.758,0.615c0.508,0.43,0.791,0.957,0.85,1.582l4.863,39.961H728.672z"/>
		<path fill="#FFFFFF" d="M747.833,198.822c3.652,0,6.757,0.713,9.316,2.139c2.91,1.641,4.365,3.887,4.365,6.738V222.2
			c0,2.852-1.455,5.098-4.365,6.738c-2.559,1.426-5.665,2.139-9.316,2.139c-3.672,0-6.787-0.713-9.346-2.139
			c-2.911-1.641-4.365-3.887-4.365-6.738v-14.502c0-2.852,1.455-5.098,4.365-6.738C741.045,199.534,744.16,198.822,747.833,198.822z
			 M759.024,207.698c0-1.973-1.172-3.555-3.516-4.746c-2.129-1.094-4.688-1.641-7.676-1.641c-3.008,0-5.577,0.547-7.705,1.641
			c-2.344,1.191-3.516,2.773-3.516,4.746V222.2c0,1.973,1.172,3.555,3.516,4.746c2.128,1.094,4.697,1.641,7.705,1.641
			c2.988,0,5.547-0.547,7.676-1.641c2.344-1.191,3.516-2.773,3.516-4.746V207.698z"/>
		<path fill="#FFFFFF" d="M780.792,198.792c3.652,0,6.757,0.713,9.316,2.139c2.91,1.641,4.365,3.887,4.365,6.738v14.502
			c0,2.852-1.455,5.098-4.365,6.738c-2.559,1.426-5.665,2.139-9.316,2.139c-4.883,0-8.624-1.162-11.221-3.486v2.93h-2.49V188.48
			h2.49v13.799C772.168,199.954,775.909,198.792,780.792,198.792z M791.983,207.669c0-1.973-1.172-3.555-3.516-4.746
			c-2.129-1.094-4.688-1.641-7.676-1.641c-3.008,0-5.577,0.547-7.705,1.641c-2.344,1.191-3.516,2.773-3.516,4.746v14.502
			c0,1.973,1.172,3.555,3.516,4.746c2.128,1.094,4.697,1.641,7.705,1.641c2.988,0,5.547-0.547,7.676-1.641
			c2.344-1.191,3.516-2.773,3.516-4.746V207.669z"/>
		<path fill="#FFFFFF" d="M803.277,189.08c0.4,0.4,0.601,0.884,0.601,1.45c0,0.586-0.201,1.079-0.601,1.479
			c-0.4,0.4-0.884,0.601-1.45,0.601c-0.586,0-1.08-0.2-1.479-0.601c-0.4-0.4-0.601-0.894-0.601-1.479c0-0.566,0.2-1.05,0.601-1.45
			c0.4-0.4,0.894-0.601,1.479-0.601C802.393,188.48,802.876,188.68,803.277,189.08z M800.567,230.491h2.49v-31.143h-2.49V230.491z"
			/>
		<path fill="#FFFFFF" d="M813.106,225.716c0,0.625,0.234,1.162,0.703,1.611c0.449,0.449,0.986,0.674,1.611,0.674h2.666v2.49h-2.666
			c-1.328,0-2.461-0.469-3.398-1.406s-1.406-2.061-1.406-3.369V188.48h2.49V225.716z"/>
		<path fill="#FFFFFF" d="M845.625,225.54l0.908-0.85l1.729,1.787l-0.879,0.85c-2.559,2.5-6.514,3.75-11.865,3.75
			c-3.359,0-6.318-0.537-8.877-1.611c-3.887-1.621-5.83-4.043-5.83-7.266v-14.502c0-2.852,1.455-5.098,4.365-6.738
			c2.559-1.426,5.674-2.139,9.346-2.139c3.652,0,6.758,0.713,9.316,2.139c2.91,1.641,4.365,3.887,4.365,6.738v4.424
			c0,1.133-0.4,2.09-1.201,2.871c-0.801,0.801-1.758,1.201-2.871,1.201h-20.83v6.006c0,2.109,1.436,3.77,4.307,4.98
			c2.891,1.211,6.201,1.65,9.932,1.318S843.965,227.181,845.625,225.54z M823.301,213.704h20.83c0.43,0,0.801-0.156,1.113-0.469
			s0.469-0.684,0.469-1.113v-4.424c0-1.914-1.084-3.457-3.252-4.629c-2.148-1.172-4.795-1.758-7.939-1.758
			c-3.008,0-5.576,0.547-7.705,1.641c-2.344,1.191-3.516,2.773-3.516,4.746V213.704z"/>
		<path fill="#FFFFFF" d="M894.2,230.491l-3.955-15h-19.043l-3.926,15h-2.607l9.023-34.365c0.703-2.695,1.67-4.785,2.9-6.27
			s2.607-2.227,4.131-2.227s2.9,0.742,4.131,2.227s2.197,3.574,2.9,6.27l9.023,34.365H894.2z M889.6,213.001l-4.248-16.23
			c-0.586-2.246-1.348-3.965-2.285-5.156c-0.781-0.977-1.563-1.465-2.344-1.465c-0.762,0-1.533,0.488-2.314,1.465
			c-0.938,1.191-1.699,2.91-2.285,5.156l-4.277,16.23H889.6z"/>
		<path fill="#FFFFFF" d="M913.711,198.792c3.652,0,6.758,0.713,9.316,2.139c2.91,1.641,4.365,3.887,4.365,6.738v14.502
			c0,2.852-1.455,5.098-4.365,6.738c-2.559,1.426-5.664,2.139-9.316,2.139c-4.883,0-8.623-1.162-11.221-3.486v17.109H900v-45.322
			h2.49v2.93C905.088,199.954,908.829,198.792,913.711,198.792z M924.903,207.669c0-1.973-1.172-3.555-3.516-4.746
			c-2.129-1.094-4.688-1.641-7.676-1.641c-3.008,0-5.576,0.547-7.705,1.641c-2.344,1.191-3.516,2.773-3.516,4.746v14.502
			c0,1.973,1.172,3.555,3.516,4.746c2.129,1.094,4.697,1.641,7.705,1.641c2.988,0,5.547-0.547,7.676-1.641
			c2.344-1.191,3.516-2.773,3.516-4.746V207.669z"/>
		<path fill="#FFFFFF" d="M946.67,198.792c3.652,0,6.758,0.713,9.316,2.139c2.91,1.641,4.365,3.887,4.365,6.738v14.502
			c0,2.852-1.455,5.098-4.365,6.738c-2.559,1.426-5.664,2.139-9.316,2.139c-4.883,0-8.623-1.162-11.221-3.486v17.109h-2.49v-45.322
			h2.49v2.93C938.047,199.954,941.788,198.792,946.67,198.792z M957.862,207.669c0-1.973-1.172-3.555-3.516-4.746
			c-2.129-1.094-4.688-1.641-7.676-1.641c-3.008,0-5.576,0.547-7.705,1.641c-2.344,1.191-3.516,2.773-3.516,4.746v14.502
			c0,1.973,1.172,3.555,3.516,4.746c2.129,1.094,4.697,1.641,7.705,1.641c2.988,0,5.547-0.547,7.676-1.641
			c2.344-1.191,3.516-2.773,3.516-4.746V207.669z"/>
		<path fill="#FFFFFF" d="M994.629,187.894c5.527,0.02,9.961,2.363,13.301,7.031c3.008,4.219,4.512,9.316,4.512,15.293
			c0,5.625-1.445,10.41-4.336,14.355c-3.281,4.512-7.783,6.777-13.506,6.797h-4.805c-4.219,0-6.865-0.469-7.939-1.406
			c-1.055-0.918-1.582-3.223-1.582-6.914v-26.865c0-3.691,0.527-5.996,1.582-6.914s3.691-1.377,7.91-1.377H994.629z M994.6,228.88
			c4.961-0.039,8.838-2.002,11.631-5.889c2.48-3.438,3.721-7.695,3.721-12.773c0-5.313-1.299-9.844-3.896-13.594
			c-2.871-4.141-6.68-6.221-11.426-6.24h-4.863c-3.594,0-5.684,0.254-6.27,0.762c-0.488,0.449-0.732,2.129-0.732,5.039v26.865
			c0,2.93,0.244,4.609,0.732,5.039c0.586,0.527,2.686,0.791,6.299,0.791H994.6z"/>
		<path fill="#FFFFFF" d="M1041.944,225.54l0.908-0.85l1.729,1.787l-0.879,0.85c-2.559,2.5-6.514,3.75-11.865,3.75
			c-3.359,0-6.318-0.537-8.877-1.611c-3.887-1.621-5.83-4.043-5.83-7.266v-14.502c0-2.852,1.455-5.098,4.365-6.738
			c2.559-1.426,5.674-2.139,9.346-2.139c3.652,0,6.758,0.713,9.316,2.139c2.91,1.641,4.365,3.887,4.365,6.738v4.424
			c0,1.133-0.4,2.09-1.201,2.871c-0.801,0.801-1.758,1.201-2.871,1.201h-20.83v6.006c0,2.109,1.436,3.77,4.307,4.98
			c2.891,1.211,6.201,1.65,9.932,1.318S1040.284,227.181,1041.944,225.54z M1019.62,213.704h20.83c0.43,0,0.801-0.156,1.113-0.469
			s0.469-0.684,0.469-1.113v-4.424c0-1.914-1.084-3.457-3.252-4.629c-2.148-1.172-4.795-1.758-7.939-1.758
			c-3.008,0-5.576,0.547-7.705,1.641c-2.344,1.191-3.516,2.773-3.516,4.746V213.704z"/>
		<path fill="#FFFFFF" d="M1060.049,198.822c2.969,0,5.488,0.518,7.559,1.553c2.363,1.152,3.545,2.744,3.545,4.775v1.26h-2.49v-1.26
			c0-1.113-0.918-2.041-2.754-2.783c-1.699-0.703-3.652-1.055-5.859-1.055s-4.15,0.352-5.83,1.055
			c-1.836,0.742-2.754,1.67-2.754,2.783v4.717c0,1.309,0.781,2.246,2.344,2.813c1.113,0.41,3.232,0.752,6.357,1.025
			c3.555,0.313,6.035,0.762,7.441,1.348c2.363,0.957,3.545,2.617,3.545,4.98v4.688c0,2.031-1.182,3.633-3.545,4.805
			c-2.07,1.035-4.59,1.553-7.559,1.553c-2.949,0-5.459-0.518-7.529-1.553c-2.363-1.172-3.545-2.773-3.545-4.805v-1.26h2.49v1.26
			c0,1.133,0.918,2.07,2.754,2.813c1.68,0.684,3.623,1.025,5.83,1.025s4.16-0.342,5.859-1.025c1.836-0.742,2.754-1.68,2.754-2.813
			v-4.688c0-1.309-0.771-2.246-2.314-2.813c-1.133-0.41-3.262-0.752-6.387-1.025c-3.555-0.313-6.025-0.762-7.412-1.348
			c-2.383-0.957-3.574-2.617-3.574-4.98v-4.717c0-2.031,1.182-3.623,3.545-4.775C1054.59,199.339,1057.1,198.822,1060.049,198.822z"
			/>
		<path fill="#FFFFFF" d="M1080.542,189.08c0.4,0.4,0.601,0.884,0.601,1.45c0,0.586-0.2,1.079-0.601,1.479s-0.884,0.601-1.45,0.601
			c-0.586,0-1.079-0.2-1.479-0.601s-0.601-0.894-0.601-1.479c0-0.566,0.2-1.05,0.601-1.45s0.894-0.601,1.479-0.601
			C1079.659,188.48,1080.142,188.68,1080.542,189.08z M1077.833,230.491h2.49v-31.143h-2.49V230.491z"/>
		<path fill="#FFFFFF" d="M1114.952,200.843c0.898-0.996,2.07-1.494,3.516-1.494h1.26v2.49h-1.26c-0.703,0-1.25,0.225-1.641,0.674
			c-0.762,0.84-1.113,2.285-1.055,4.336c0.02,0.254,0.029,0.498,0.029,0.732l0.146,1.201h-0.117v2.051
			c0,2.852-1.465,5.098-4.395,6.738c-2.559,1.426-5.664,2.139-9.316,2.139c-2.09,0-4.072-0.264-5.947-0.791
			c-1.387,0.723-2.129,1.494-2.227,2.314c-0.098,0.898,0.654,1.953,2.256,3.164c1.895-0.43,3.867-0.645,5.918-0.645
			c4.023,0,7.451,0.723,10.283,2.168c3.223,1.621,4.834,4.399,4.834,8.335s-1.68,6.724-5.039,8.364
			c-2.773,1.367-6.133,2.051-10.078,2.051c-4.023,0-7.451-0.723-10.283-2.168c-3.223-1.621-4.834-4.497-4.834-8.628
			s2.119-7.007,6.357-8.628c-1.426-1.406-2.061-2.842-1.904-4.307c0.137-1.133,0.752-2.168,1.846-3.105
			c-3.262-1.641-4.893-3.975-4.893-7.002v-3.164c0-2.852,1.465-5.098,4.395-6.738c2.559-1.426,5.664-2.139,9.316-2.139
			c5.293,0,9.199,1.328,11.719,3.984C1114.131,201.995,1114.502,201.351,1114.952,200.843z M1110.762,227.884
			c-2.383-1.094-5.264-1.641-8.643-1.641c-2.012,0-3.916,0.215-5.713,0.645l-0.732,0.205c-4.121,1.152-6.182,3.384-6.182,6.694
			s1.318,5.562,3.955,6.753c2.402,1.094,5.293,1.641,8.672,1.641c3.574,0,6.572-0.596,8.994-1.787s3.633-3.276,3.633-6.255
			S1113.418,229.075,1110.762,227.884z M1102.12,217.22c3.008,0,5.566-0.547,7.676-1.641c2.344-1.191,3.516-2.773,3.516-4.746
			v-3.105c-0.02-0.176-0.029-0.4-0.029-0.674c-0.254-1.797-1.523-3.232-3.809-4.307c-2.07-0.977-4.521-1.465-7.354-1.465
			c-3.008,0-5.566,0.547-7.676,1.641c-2.344,1.191-3.516,2.773-3.516,4.746v3.164c0,2.441,1.699,4.248,5.098,5.42l0.996,0.322
			C1098.624,217.005,1100.323,217.22,1102.12,217.22z"/>
		<path fill="#FFFFFF" d="M1136.28,198.792c3.691,0,6.826,0.713,9.404,2.139c2.949,1.641,4.424,3.887,4.424,6.738v22.822h-2.49
			v-22.822c0-1.973-1.191-3.555-3.574-4.746c-2.148-1.094-4.736-1.641-7.764-1.641c-3.047,0-5.635,0.547-7.764,1.641
			c-2.383,1.191-3.574,2.773-3.574,4.746v22.822h-2.49v-31.143h2.49v2.93C1127.579,199.954,1131.358,198.792,1136.28,198.792z"/>
	</g>
</g>
<g id="Layer_1">
	<g id="Layer_1_1_">
		<g>
			<polygon fill="none" points="104.802,59.031 129.323,81.553 154.025,59.031 129.323,36.69 			"/>
			<path fill="#FF0000" d="M246.054,118.062h12.774L129.323,0L0,118.062h11.513c-0.167,10.837,28.708,54.251,28.708,54.251v-3.621
				V117.99l44.602-40.612l44.5,40.686l44.682-40.686l44.682,40.686h0.02l0.001,0.012v45.906
				C218.708,163.979,242.446,132.319,246.054,118.062z M129.323,81.553l-24.521-22.521l24.521-22.343l24.702,22.343L129.323,81.553z
				"/>
		</g>
	</g>
	<g id="Layer_2">
		<g>
			<path fill="#FFFFFF" d="M391.878,146.656l-12.149-21h-73.951l-12.15,21h-28.05l60.3-105h33.75l60.3,105H391.878z M342.828,61.306
				l-24,41.7h48L342.828,61.306z"/>
			<path fill="#FFFFFF" d="M571.876,76.156c0,4.601-0.6,8.65-1.8,12.149c-1.2,3.501-2.775,6.524-4.726,9.074
				c-1.949,2.551-4.149,4.676-6.6,6.375c-2.452,1.702-4.927,3.052-7.425,4.051l18.3,38.851h-28.2l-16.8-35.851h-55.05v35.851h-26.4
				v-105h94.351c2.798,0,6.173,0.501,10.125,1.5c3.948,1.001,7.725,2.774,11.325,5.324c3.6,2.551,6.648,6.052,9.149,10.5
				C570.625,63.432,571.876,69.158,571.876,76.156z M545.476,76.156c0-2.499-0.449-4.523-1.35-6.075
				c-0.9-1.549-2.002-2.749-3.3-3.601c-1.301-0.849-2.625-1.425-3.975-1.725c-1.351-0.3-2.427-0.45-3.226-0.45h-64.05v23.851h64.05
				c0.601,0,1.549-0.175,2.851-0.525c1.299-0.349,2.625-0.975,3.975-1.875s2.523-2.124,3.525-3.675
				C544.975,80.532,545.476,78.556,545.476,76.156z"/>
			<path fill="#FFFFFF" d="M670.876,64.306v82.351h-26.25V64.306h-47.25V41.656h120.75v22.649H670.876z"/>
			<path fill="#FFFFFF" d="M746.626,146.656v-105h26.4v105H746.626z"/>
			<path fill="#FFFFFF" d="M832.425,64.306v23.851h87v22.649h-87v35.851h-26.399v-105h125.25v22.649H832.425z"/>
			<path fill="#FFFFFF" d="M961.273,146.656v-105h26.4v105H961.273z"/>
			<path fill="#FFFFFF" d="M1153.722,119.057c-2.602,4.5-5.949,8.625-10.049,12.375c-4.102,3.75-8.902,7.026-14.4,9.824
				c-5.5,2.801-11.65,4.977-18.449,6.525c-6.803,1.549-14.25,2.324-22.352,2.324c-11.5,0-21.773-1.5-30.824-4.5
				s-16.701-7.05-22.949-12.149c-6.25-5.101-11.025-11.024-14.324-17.774c-3.301-6.75-4.951-13.925-4.951-21.524
				s1.65-14.775,4.951-21.525c3.299-6.75,8.074-12.675,14.324-17.775c6.248-5.1,13.898-9.149,22.949-12.149s19.324-4.5,30.824-4.5
				c7.801,0,15.023,0.727,21.676,2.175c6.648,1.451,12.676,3.501,18.074,6.15c5.4,2.65,10.148,5.751,14.25,9.3
				c4.102,3.551,7.5,7.425,10.201,11.625l-23.701,12c-1.5-2.498-3.523-4.85-6.074-7.05c-2.551-2.198-5.602-4.1-9.148-5.7
				c-3.551-1.599-7.553-2.873-12-3.825c-4.451-0.949-9.227-1.425-14.326-1.425c-7.4,0-13.875,0.877-19.424,2.625
				c-5.551,1.751-10.152,4.125-13.801,7.125c-3.652,3-6.4,6.476-8.25,10.425c-1.852,3.952-2.775,8.125-2.775,12.525
				c0,4.301,0.924,8.426,2.775,12.375c1.85,3.95,4.598,7.425,8.25,10.425c3.648,3,8.25,5.399,13.801,7.2
				c5.549,1.8,12.021,2.699,19.424,2.699c5.4,0,10.4-0.524,15-1.574c4.6-1.051,8.701-2.476,12.301-4.275
				c3.602-1.8,6.697-3.899,9.301-6.3c2.6-2.399,4.549-4.95,5.85-7.649L1153.722,119.057z"/>
			<path fill="#FFFFFF" d="M1180.72,146.656v-105h126.451v22.649h-100.051v18.9h88.051v20.399h-88.051v20.399h103.949v22.65
				L1180.72,146.656L1180.72,146.656z"/>
			<path fill="#FFFFFF" d="M1469.021,76.156c0,4.601-0.602,8.65-1.801,12.149c-1.199,3.501-2.773,6.524-4.725,9.074
				c-1.951,2.551-4.15,4.676-6.602,6.375c-2.451,1.702-4.926,3.052-7.424,4.051l18.299,38.851h-28.199l-16.801-35.851h-55.049
				v35.851h-26.4v-105h94.35c2.799,0,6.174,0.501,10.125,1.5c3.949,1.001,7.727,2.774,11.326,5.324
				c3.6,2.551,6.648,6.052,9.148,10.5C1467.769,63.432,1469.021,69.158,1469.021,76.156z M1442.621,76.156
				c0-2.499-0.451-4.523-1.352-6.075c-0.898-1.549-2.002-2.749-3.299-3.601c-1.301-0.849-2.625-1.425-3.977-1.725
				c-1.35-0.3-2.426-0.45-3.225-0.45h-64.051v23.851h64.051c0.6,0,1.549-0.175,2.85-0.525c1.299-0.349,2.625-0.975,3.977-1.875
				c1.35-0.9,2.523-2.124,3.523-3.675C1442.119,80.532,1442.621,78.556,1442.621,76.156z"/>
			<path fill="#FFFFFF" d="M1621.119,112.756c0,5.201-1.4,10.102-4.199,14.7c-2.801,4.601-7.102,8.625-12.9,12.075
				c-5.801,3.449-13.049,6.149-21.75,8.1c-8.699,1.95-19,2.926-30.898,2.926c-6.102,0-12.354-0.502-18.75-1.5
				c-5.5-0.802-11.551-2.051-18.15-3.75s-13-4.147-19.199-7.351l9.15-21c5.498,2.801,11.023,4.976,16.574,6.524
				c5.551,1.553,10.574,2.678,15.074,3.375c5.301,0.803,10.398,1.251,15.301,1.351c15,0,26.176-1.351,33.523-4.05
				c7.35-2.7,11.025-6.248,11.025-10.65c0-2.798-1.15-4.849-3.449-6.149c-2.303-1.299-5.852-2.049-10.65-2.25
				c-1.102-0.099-3.176-0.226-6.225-0.375c-3.053-0.149-6.775-0.322-11.176-0.524c-4.402-0.199-9.301-0.398-14.699-0.601
				c-5.4-0.198-11.002-0.449-16.801-0.75c-5.801-0.3-11.125-1.1-15.975-2.399c-4.854-1.298-9.053-3.173-12.602-5.625
				c-3.551-2.449-6.326-5.449-8.324-9c-2.002-3.548-3-7.726-3-12.525s1.574-9.323,4.725-13.575c3.15-4.25,7.65-7.949,13.5-11.1
				c5.852-3.15,12.949-5.625,21.301-7.425c8.35-1.8,17.674-2.7,27.977-2.7c6.098,0,12.299,0.45,18.6,1.35
				c5.4,0.802,11.424,1.95,18.074,3.45c6.648,1.5,13.125,3.701,19.426,6.601l-7.949,20.699c-3.102-1.299-6.602-2.55-10.5-3.75
				c-3.9-1.199-7.977-2.25-12.227-3.149c-4.25-0.9-8.549-1.599-12.898-2.101c-4.352-0.5-8.527-0.75-12.525-0.75
				c-6,0-11.576,0.276-16.725,0.825c-5.152,0.551-9.627,1.376-13.426,2.476c-3.801,1.102-6.775,2.451-8.926,4.05
				c-2.15,1.601-3.225,3.4-3.225,5.399c0,2.603,1.1,4.552,3.301,5.851c2.197,1.301,5.447,2.051,9.75,2.25
				c4.799,0.202,11.549,0.502,20.25,0.899c8.699,0.4,18.998,0.852,30.898,1.351c6,0.3,11.375,1.102,16.125,2.399
				c4.748,1.302,8.799,3.149,12.15,5.551c3.35,2.399,5.924,5.351,7.725,8.85C1620.22,104.258,1621.119,108.256,1621.119,112.756z"/>
		</g>
	</g>
</g>
</svg>
