<?xml version="1.0" encoding="utf-8"?>
<!-- Generator: Adobe Illustrator 16.0.0, SVG Export Plug-In . SVG Version: 6.00 Build 0)  -->
<!DOCTYPE svg PUBLIC "-//W3C//DTD SVG 1.1//EN" "http://www.w3.org/Graphics/SVG/1.1/DTD/svg11.dtd">
<svg version="1.1" id="Layer_1" xmlns="http://www.w3.org/2000/svg" xmlns:xlink="http://www.w3.org/1999/xlink" x="0px" y="0px"
	 width="4875px" height="509.337px" viewBox="0 0 4875 509.337" enable-background="new 0 0 4875 509.337" xml:space="preserve">
<g>
	<path fill="#FFFFFF" d="M1944.818,192.723h-117.123v-56.432h298.594v56.432h-117.124v260.838h-64.347V192.723z"/>
	<path fill="#FFFFFF" d="M2269.923,136.291h64.753v317.27h-64.753V136.291z"/>
	<path fill="#FFFFFF" d="M2499.826,136.291h283.776v56.432h-219.429v83.021h186.342v52.98h-186.342v124.837h-64.348V136.291z"/>
	<path fill="#FFFFFF" d="M2920.74,136.291h64.754v317.27h-64.754V136.291z"/>
	<path fill="#FFFFFF" d="M3131.359,292.997c0-22.599,4.264-43.672,12.789-63.23c8.525-19.553,20.873-36.538,37.045-50.948
		c16.171-14.413,35.93-25.745,59.273-34.001c23.342-8.252,49.764-12.382,79.266-12.382c25.847,0,49.561,2.607,71.147,7.815
		c21.584,5.21,41.644,13.163,60.185,23.85l-29.635,48.717c-5.55-3.653-11.944-6.901-19.183-9.743
		c-7.241-2.842-14.954-5.243-23.14-7.206c-8.189-1.959-16.646-3.482-25.375-4.567c-8.729-1.082-17.355-1.624-25.881-1.624
		c-20.57,0-38.906,2.537-55.008,7.612c-16.106,5.075-29.672,12.179-40.701,21.313s-19.42,20.029-25.169,32.681
		c-5.753,12.656-8.627,26.561-8.627,41.714c0,15.701,2.976,30.113,8.931,43.236c5.953,13.128,14.58,24.46,25.882,34.001
		c11.298,9.54,25.101,16.983,41.408,22.328c16.306,5.349,34.744,8.019,55.314,8.019c9.338,0,18.606-0.677,27.81-2.03
		c9.201-1.35,18.099-3.213,26.691-5.582c8.594-2.364,16.882-5.207,24.867-8.525c7.983-3.315,15.428-6.932,22.328-10.86
		l29.637,48.717c-17.322,11.098-37.351,19.791-60.084,26.084c-22.734,6.293-46.891,9.439-72.467,9.439
		c-32.613,0-61.235-4.232-85.863-12.687c-24.631-8.455-45.2-20.097-61.709-34.915c-16.511-14.816-28.925-32.274-37.248-52.369
		C3135.521,337.756,3131.359,316.138,3131.359,292.997z"/>
	<path fill="#FFFFFF" d="M3615.199,136.291h270.178v56.432h-205.828v63.331h182.281v52.979h-182.281v88.299h210.09v56.229h-274.439
		V136.291z"/>
	<path fill="#FFFFFF" d="M4522.391,359.171c11.502,6.496,23.173,12.352,35.016,17.559c11.84,5.21,24.121,9.611,36.842,13.195
		c12.719,3.585,26.085,6.325,40.09,8.221c14.007,1.897,28.926,2.841,44.76,2.841c19.08,0,35.32-1.249,48.717-3.755
		c13.396-2.503,24.324-5.954,32.781-10.353c8.457-4.395,14.615-9.642,18.473-15.731s5.785-12.718,5.785-19.893
		c0-11.499-4.805-20.603-14.412-27.303c-9.609-6.698-24.428-10.047-44.453-10.047c-8.799,0-18.067,0.579-27.811,1.726
		c-9.742,1.15-19.588,2.405-29.535,3.755c-9.945,1.354-19.759,2.608-29.433,3.755c-9.677,1.151-18.776,1.726-27.301,1.726
		c-14.21,0-27.845-1.826-40.901-5.48c-13.061-3.654-24.633-9.135-34.712-16.442c-10.083-7.307-18.101-16.441-24.054-27.402
		c-5.957-10.962-8.933-23.749-8.933-38.365c0-8.657,1.185-17.253,3.554-25.779c2.365-8.524,6.155-16.676,11.367-24.46
		c5.207-7.78,11.941-15.021,20.197-21.72c8.253-6.698,18.234-12.483,29.939-17.355s25.237-8.693,40.599-11.468
		c15.357-2.771,32.849-4.161,52.472-4.161c14.209,0,28.485,0.78,42.83,2.334c14.344,1.556,28.316,3.755,41.917,6.596
		c13.6,2.842,26.692,6.261,39.278,10.25c12.585,3.993,24.289,8.426,35.116,13.296l-28.215,51.965
		c-8.933-3.923-18.541-7.542-28.825-10.858c-10.283-3.316-21.043-6.192-32.273-8.629c-11.234-2.435-22.836-4.363-34.813-5.784
		s-24.189-2.132-36.641-2.132c-17.728,0-32.309,1.288-43.742,3.857c-11.438,2.571-20.537,5.855-27.303,9.845
		c-6.767,3.993-11.468,8.459-14.107,13.397c-2.639,4.941-3.958,9.845-3.958,14.717c0,9.474,4.263,17.223,12.788,23.242
		c8.525,6.022,21.516,9.032,38.975,9.032c7.034,0,15.121-0.508,24.256-1.522s18.742-2.131,28.824-3.349
		c10.08-1.218,20.365-2.335,30.854-3.35c10.485-1.016,20.671-1.522,30.55-1.522c18.674,0,35.218,2.101,49.629,6.292
		c14.413,4.196,26.49,10.185,36.234,17.965c9.742,7.784,17.117,17.187,22.125,28.215c5.006,11.032,7.511,23.378,7.511,37.045
		c0,18.27-4.23,34.543-12.687,48.819c-8.458,14.28-20.502,26.321-36.133,36.132c-15.63,9.814-34.475,17.254-56.531,22.328
		c-22.059,5.075-46.619,7.612-73.684,7.612c-17.864,0-35.32-1.117-52.371-3.35c-17.051-2.233-33.393-5.409-49.021-9.54
		c-15.63-4.128-30.517-9.064-44.658-14.818c-14.141-5.751-27.233-12.078-39.277-18.979L4522.391,359.171z"/>
</g>
<path fill="#FFFFFF" d="M950.532,453.117l60.487-131.059l0.292,0.013l55.142-118.997l57.885,121.593l0.614,0.003l61.814,128.891
	h66.638l-153.459-317.27h-68.203L882.75,453.561h67.798l0.163-0.354C950.604,453.152,950.532,453.117,950.532,453.117z"/>
<path fill="#FFFFFF" d="M4308.727,334.711c8.932-6.969,16.34-14.919,22.227-23.852c5.887-8.931,10.252-18.704,13.094-29.33
	c2.842-10.623,4.262-21.821,4.262-33.595c0-17.457-2.875-33.087-8.626-46.891c-5.752-13.802-14.514-25.506-26.288-35.116
	c-11.773-9.607-26.592-16.949-44.453-22.024c-17.863-5.075-38.974-7.612-63.332-7.612h-161.375v317.27h64.348v-90.33h0.023
	l0.022-55.618h-0.046V192.316h98.651c24.492,0,42.831,4.84,55.009,14.514c12.18,9.676,18.27,23.378,18.27,41.104
	c0,9.067-1.521,17.288-4.567,24.663c-3.046,7.378-7.647,13.634-13.803,18.776c-6.159,5.146-13.804,9.135-22.938,11.976
	c-9.133,2.843-19.791,4.263-31.97,4.263h-35.946l96.35,145.948h78.643l-69.016-101.494
	C4289.307,347.469,4299.795,341.685,4308.727,334.711z"/>
<path fill="#FFFFFF" d="M1650.365,334.711c8.932-6.969,16.342-14.919,22.228-23.852c5.887-8.931,10.251-18.704,13.093-29.33
	c2.842-10.623,4.262-21.821,4.262-33.595c0-17.457-2.876-33.087-8.627-46.891c-5.753-13.802-14.513-25.506-26.286-35.116
	c-11.772-9.607-26.591-16.949-44.454-22.024c-17.862-5.075-38.973-7.612-63.332-7.612h-161.375v317.27h64.348v-83.742l-0.002-0.003
	l0.002-5.018v-1.567h0.001l0.022-55.618h-0.023V192.316h98.65c24.493,0,42.831,4.84,55.01,14.514
	c12.181,9.676,18.27,23.378,18.27,41.104c0,9.067-1.522,17.288-4.566,24.663c-3.046,7.378-7.647,13.634-13.804,18.776
	c-6.159,5.146-13.804,9.135-22.938,11.976c-9.135,2.843-19.791,4.263-31.972,4.263h-36.215l45.464,68.869l51.04,77.079h78.758
	l-69.016-101.494C1630.945,347.469,1641.434,341.685,1650.365,334.711z"/>
<g>
	<polygon fill="none" points="334.384,174.487 406.864,241.061 479.88,174.487 406.864,108.451 	"/>
	<path fill="#FF0000" d="M751.904,348.976h37.76L406.864,0L24.601,348.976h34.032c-0.492,32.034,84.855,160.361,84.855,160.361
		v-10.706V348.762l131.839-120.049l131.537,120.261l132.073-120.261l132.076,120.261h0.06l0.002,0.029v135.699
		C671.074,484.702,741.24,391.118,751.904,348.976z M406.864,241.061l-72.479-66.573l72.479-66.036l73.016,66.036L406.864,241.061z"
		/>
</g>
</svg>
