<?xml version="1.0" encoding="utf-8"?>
<!-- Generator: Adobe Illustrator 16.0.0, SVG Export Plug-In . SVG Version: 6.00 Build 0)  -->
<!DOCTYPE svg PUBLIC "-//W3C//DTD SVG 1.1//EN" "http://www.w3.org/Graphics/SVG/1.1/DTD/svg11.dtd">
<svg version="1.1" xmlns="http://www.w3.org/2000/svg" xmlns:xlink="http://www.w3.org/1999/xlink" x="0px" y="0px"
	 width="1665.166px" height="172.313px" viewBox="43.453 0 1665.166 172.313" enable-background="new 43.453 0 1665.166 172.313"
	 xml:space="preserve">
<g id="Layer_1">
	<g id="Layer_1_2_">
		<g id="Layer_2">
			<g>
				<path fill="#FFFFFF" d="M456.81,143.43l-12.149-21H370.71l-12.15,21h-28.05l60.3-105h33.75l60.3,105H456.81z M407.76,58.079
					l-24,41.7h48L407.76,58.079z"/>
				<path fill="#FFFFFF" d="M636.808,72.93c0,4.601-0.6,8.649-1.8,12.147c-1.2,3.502-2.775,6.524-4.728,9.074
					c-1.947,2.551-4.147,4.676-6.6,6.375c-2.452,1.702-4.927,3.053-7.425,4.051l18.3,38.853h-28.2l-16.8-35.853h-55.05v35.853h-26.4
					v-105h94.353c2.798,0,6.173,0.501,10.125,1.5c3.946,1.001,7.725,2.773,11.323,5.323c3.602,2.552,6.648,6.053,9.149,10.5
					C635.557,60.205,636.808,65.932,636.808,72.93z M610.409,72.93c0-2.499-0.448-4.523-1.351-6.075
					c-0.899-1.549-2.002-2.749-3.3-3.602c-1.301-0.849-2.625-1.425-3.975-1.725c-1.353-0.3-2.429-0.45-3.228-0.45h-64.05V84.93
					h64.05c0.603,0,1.549-0.177,2.853-0.525c1.299-0.349,2.625-0.975,3.975-1.875s2.521-2.124,3.525-3.675
					C609.907,77.306,610.409,75.329,610.409,72.93z"/>
				<path fill="#FFFFFF" d="M735.808,61.079v82.352h-26.25V61.079h-47.25V38.43h120.75v22.648L735.808,61.079L735.808,61.079z"/>
				<path fill="#FFFFFF" d="M811.559,143.43v-105h26.4v105H811.559z"/>
				<path fill="#FFFFFF" d="M897.356,61.079v23.852h87v22.648h-87v35.852H870.96v-105h125.25v22.648H897.356z"/>
				<path fill="#FFFFFF" d="M1026.206,143.43v-105h26.398v105H1026.206z"/>
				<path fill="#FFFFFF" d="M1218.653,115.83c-2.602,4.5-5.947,8.625-10.049,12.375s-8.9,7.026-14.398,9.824
					c-5.5,2.802-11.65,4.978-18.449,6.525c-6.803,1.549-14.25,2.322-22.354,2.322c-11.5,0-21.771-1.5-30.822-4.5
					c-9.053-3-16.701-7.049-22.949-12.147c-6.25-5.102-11.025-11.024-14.324-17.774c-3.301-6.75-4.951-13.925-4.951-21.522
					c0-7.6,1.65-14.775,4.951-21.525c3.299-6.75,8.074-12.675,14.324-17.775c6.248-5.1,13.896-9.148,22.949-12.148
					c9.051-3,19.322-4.5,30.822-4.5c7.803,0,15.023,0.727,21.678,2.175c6.646,1.451,12.676,3.501,18.072,6.15
					c5.4,2.649,10.148,5.751,14.25,9.3c4.104,3.551,7.5,7.425,10.201,11.625l-23.701,12c-1.5-2.498-3.521-4.851-6.072-7.05
					c-2.553-2.198-5.604-4.101-9.148-5.7c-3.551-1.6-7.553-2.873-12-3.825c-4.451-0.949-9.227-1.425-14.326-1.425
					c-7.398,0-13.875,0.877-19.424,2.625c-5.551,1.751-10.15,4.125-13.801,7.125c-3.652,3-6.4,6.476-8.25,10.425
					c-1.854,3.952-2.775,8.125-2.775,12.525c0,4.301,0.924,8.426,2.775,12.375c1.85,3.949,4.598,7.425,8.25,10.425
					c3.646,3,8.25,5.397,13.801,7.2c5.549,1.8,12.021,2.697,19.424,2.697c5.4,0,10.4-0.522,15-1.572
					c4.602-1.053,8.701-2.477,12.303-4.275c3.602-1.8,6.695-3.899,9.301-6.3c2.6-2.398,4.549-4.95,5.85-7.648L1218.653,115.83z"/>
				<path fill="#FFFFFF" d="M1245.651,143.43v-105h126.451v22.648h-100.051v18.9h88.051v20.397h-88.051v20.399h103.949v22.649
					L1245.651,143.43L1245.651,143.43z"/>
				<path fill="#FFFFFF" d="M1533.954,72.93c0,4.601-0.604,8.649-1.803,12.147c-1.197,3.502-2.771,6.524-4.725,9.074
					c-1.951,2.551-4.15,4.676-6.604,6.375c-2.451,1.702-4.926,3.053-7.424,4.051l18.299,38.853h-28.197l-16.803-35.853h-55.049
					v35.853h-26.398v-105h94.35c2.799,0,6.174,0.501,10.125,1.5c3.949,1.001,7.729,2.773,11.326,5.323
					c3.6,2.552,6.646,6.053,9.146,10.5C1532.702,60.205,1533.954,65.932,1533.954,72.93z M1507.554,72.93
					c0-2.499-0.451-4.523-1.354-6.075c-0.896-1.549-2.002-2.749-3.299-3.602c-1.301-0.849-2.625-1.425-3.977-1.725
					s-2.428-0.45-3.227-0.45h-64.051V84.93h64.051c0.602,0,1.549-0.177,2.852-0.525c1.299-0.349,2.625-0.975,3.977-1.875
					s2.523-2.124,3.523-3.675C1507.052,77.306,1507.554,75.329,1507.554,72.93z"/>
				<path fill="#FFFFFF" d="M1686.052,109.53c0,5.201-1.4,10.102-4.199,14.7c-2.801,4.601-7.102,8.625-12.9,12.075
					c-5.801,3.447-13.049,6.147-21.75,8.1c-8.697,1.95-19,2.927-30.896,2.927c-6.104,0-12.354-0.503-18.75-1.5
					c-5.5-0.803-11.551-2.052-18.15-3.75c-6.6-1.699-13-4.146-19.197-7.352l9.148-21c5.498,2.801,11.023,4.976,16.574,6.523
					c5.551,1.554,10.574,2.679,15.074,3.375c5.301,0.804,10.396,1.25,15.301,1.352c15,0,26.176-1.352,33.521-4.05
					c7.352-2.7,11.025-6.248,11.025-10.65c0-2.798-1.15-4.849-3.449-6.148c-2.303-1.299-5.852-2.049-10.648-2.25
					c-1.104-0.1-3.178-0.227-6.227-0.375c-3.053-0.148-6.773-0.321-11.176-0.523c-4.402-0.199-9.301-0.397-14.699-0.602
					c-5.398-0.197-11.002-0.448-16.801-0.75c-5.801-0.301-11.125-1.101-15.975-2.398c-4.855-1.298-9.053-3.173-12.604-5.625
					c-3.551-2.449-6.326-5.449-8.322-9c-2.002-3.548-3-7.727-3-12.525s1.572-9.323,4.725-13.575c3.15-4.25,7.65-7.948,13.5-11.1
					c5.852-3.15,12.949-5.625,21.301-7.425c8.35-1.8,17.674-2.7,27.979-2.7c6.098,0,12.299,0.45,18.6,1.35
					c5.4,0.803,11.424,1.95,18.074,3.45c6.646,1.5,13.125,3.701,19.426,6.602l-7.949,20.698c-3.102-1.299-6.602-2.55-10.5-3.75
					c-3.898-1.198-7.977-2.25-12.227-3.148c-4.25-0.9-8.549-1.6-12.898-2.102c-4.352-0.5-8.525-0.75-12.523-0.75
					c-6,0-11.576,0.276-16.727,0.825c-5.15,0.551-9.627,1.376-13.426,2.477c-3.801,1.102-6.775,2.45-8.926,4.05
					c-2.15,1.601-3.227,3.399-3.227,5.398c0,2.604,1.102,4.553,3.303,5.852c2.195,1.301,5.445,2.051,9.75,2.25
					c4.799,0.202,11.549,0.502,20.25,0.898c8.697,0.4,18.998,0.853,30.896,1.352c6,0.3,11.375,1.102,16.125,2.398
					c4.748,1.303,8.799,3.149,12.15,5.552c3.35,2.398,5.924,5.351,7.725,8.85C1685.151,101.031,1686.052,105.03,1686.052,109.53z"/>
			</g>
		</g>
	</g>
</g>
<g id="Layer_2_1_">
	<g id="Layer_1_1_">
		<g>
			<polygon fill="none" points="151.201,59.791 175.436,82.05 199.849,59.791 175.436,37.711 			"/>
			<path fill="#FF0000" d="M290.802,118.131h12.625L175.436,1.45L47.625,118.131h11.378c-0.165,10.711,28.373,53.617,28.373,53.617
				v-3.578v-50.109l44.081-40.137l43.979,40.211l44.159-40.211l44.161,40.211h0.019l0.001,0.011v45.368
				C263.776,163.512,287.236,132.221,290.802,118.131z M175.436,82.05l-24.235-22.257l24.235-22.083l24.413,22.083L175.436,82.05z"
				/>
		</g>
	</g>
</g>
</svg>
