<svg width="32" height="32" xmlns="http://www.w3.org/2000/svg">

 <g>
  <title>background</title>
  <rect fill="none" id="canvas_background" height="402" width="582" y="-1" x="-1"/>
 </g>
 <g>
  <title>Layer 1</title>
  <path id="svg_1" fill="#ff0000" d="m16,-0.055083c-8.837,0 -16,7.164 -16,16c0,8.837 7.163,16 16,16c8.836,0 16,-7.163 16,-16c0,-8.836 -7.164,-16 -16,-16zm0,30c-7.72,0 -14.031,-6.28 -14.031,-14c0,-7.72 6.311,-14 14.031,-14c7.72,0 14,6.28 14,14c0,7.72 -6.28,14 -14,14z"/>
  <path transform="rotate(90 15.984999656677246,15.398855209350588) " id="svg_2" fill="#ff0000" d="m16.699,11.237917c-0.384,-0.38 -1.044,-0.381 -1.429,0l-6.999,6.899c-0.394,0.391 -0.394,1.024 0,1.414c0.395,0.391 1.034,0.391 1.429,0l6.285,-6.195l6.285,6.196c0.394,0.391 1.034,0.391 1.429,0c0.394,-0.391 0.394,-1.024 0,-1.414l-7,-6.9z"/>
 </g>
</svg>