<?xml version="1.0" encoding="utf-8"?>
<!-- Generator: Adobe Illustrator 16.0.0, SVG Export Plug-In . SVG Version: 6.00 Build 0)  -->
<!DOCTYPE svg PUBLIC "-//W3C//DTD SVG 1.1//EN" "http://www.w3.org/Graphics/SVG/1.1/DTD/svg11.dtd">
<svg version="1.1" id="Layer_1" xmlns="http://www.w3.org/2000/svg" xmlns:xlink="http://www.w3.org/1999/xlink" x="0px" y="0px"
	 width="2971px" height="505.287px" viewBox="0 0 2971 505.287" enable-background="new 0 0 2971 505.287" xml:space="preserve">
<text transform="matrix(1 0 0 1 665.3823 988.3926)" fill="#FF0000" font-family="'Montserrat-Regular'" font-size="68.3876"> </text>
<g>
	<polygon fill="none" points="300.825,155.581 365.452,214.941 430.557,155.581 365.452,96.7 	"/>
	<path fill="#FF0000" d="M701.106,339.163h33.668L393.452,28L52.608,339.163h30.344c-0.438,28.563,75.661,142.985,75.661,142.985
		v-9.545V338.973l117.554-107.041l117.285,107.231l117.763-107.231l117.764,107.231h0.054l0.002,0.024v120.996
		C629.034,460.184,691.598,376.74,701.106,339.163z M393.452,242.941l-64.626-59.36l64.626-58.881l65.105,58.881L393.452,242.941z"
		/>
</g>
<path fill="none" stroke="#111111" stroke-width="85.1506" stroke-miterlimit="10" d="M1367.657-274.833"/>
<g>
	<path fill="#FFFFFF" d="M929,68.178c9.063,0,17.662,1.737,25.8,5.2c8.132,3.469,15.2,8.2,21.2,14.2s10.731,13.069,14.2,21.2
		c3.462,8.137,5.2,16.737,5.2,25.8v213.6h-66v-106.8H840.6v106.8h-66v-280H929z M840.6,180.178H929.4v-20.4
		c-0.27-8-2.4-14.2-6.4-18.6s-10.269-6.6-18.8-6.6H840.6V180.178z"/>
	<path fill="#FFFFFF" d="M1026.596,68.178h216v132c0,12-3,23.068-9,33.2c-6,10.138-13.8,18.138-23.399,24l32.399,90.8h-70.188
		l-29.681-81.6h-50.132v81.6h-66V68.178z M1151.277,200.178c8.575,0,14.869-2.212,18.888-6.638
		c4.019-4.425,6.162-10.668,6.431-18.719v-40.244h-84v65.6H1151.277z"/>
	<path fill="#FFFFFF" d="M1407.792,134.178v214h-66v-214h-71.6v-66.4h209.2v66.4H1407.792z"/>
	<path fill="#FFFFFF" d="M1503.39,68.178h66v280h-66V68.178z"/>
	<path fill="#FFFFFF" d="M1786.188,68.178v66.4h-122.4v33.2h96.4v58.8h-96.4v121.6h-66v-280H1786.188z"/>
	<path fill="#FFFFFF" d="M1814.188,68.178h66v280h-66V68.178z"/>
	<path fill="#FFFFFF" d="M1977.786,281.777h132v66.4h-198v-213.2c0-9.063,1.731-17.662,5.2-25.8
		c3.462-8.131,8.199-15.263,14.199-21.4c6-6.131,13-10.931,21-14.4c8-3.463,16.663-5.2,26-5.2h131.601v66.4h-106.8
		c-6.4,0.269-11.27,1.675-14.601,4.212c-3.337,2.538-5.8,5.413-7.399,8.625c-1.869,3.744-2.938,7.888-3.2,12.432V281.777z"/>
	<path fill="#FFFFFF" d="M2143.78,68.178h188.4v66.4h-122.4v33.2h96.4v58.8h-96.4v55.199h122v66.4h-188V68.178z"/>
	<path fill="#FFFFFF" d="M2364.175,68.178h216v132c0,12-3,23.068-9,33.2c-6,10.138-13.8,18.138-23.399,24l32.399,90.8h-70.188
		l-29.681-81.6h-50.132v81.6h-66V68.178z M2488.856,200.178c8.575,0,14.869-2.212,18.888-6.638
		c4.019-4.425,6.162-10.668,6.431-18.719v-40.244h-84v65.6H2488.856z"/>
	<path fill="#FFFFFF" d="M2741.773,234.578h-131.2v-100c0-9.063,1.731-17.663,5.2-25.8c3.463-8.131,8.2-15.2,14.2-21.2
		s13-10.731,21-14.2c8-3.463,16.662-5.2,26-5.2h131.2v66.4h-106.4c-16.537,0-24.938,7.738-25.2,23.2v10.4h131.2v113.2
		c0,9.337-1.737,18-5.2,26c-3.469,8-8.2,15.068-14.2,21.2c-6,6.137-13.068,10.938-21.199,14.399c-8.138,3.469-16.738,5.2-25.801,5.2
		h-130.8v-66.4h106c6.132,0,10.932-1.406,14.4-4.23c3.462-2.825,6-5.988,7.6-9.488c1.862-4.031,2.932-8.6,3.2-13.712V234.578z"/>
</g>
<g>
	<path fill="#FFFFFF" d="M833.357,399.268l-10.059,66.357c-0.131,1.042-0.603,1.921-1.416,2.637
		c-0.847,0.684-1.823,1.025-2.93,1.025c-2.246,0-3.695-1.123-4.346-3.369l-14.941-53.76c-0.033-0.228-0.114-0.342-0.244-0.342
		c-0.163,0-0.277,0.114-0.342,0.342l-14.893,53.76c-0.651,2.246-2.084,3.369-4.297,3.369c-1.14,0-2.116-0.342-2.93-1.025
		c-0.847-0.716-1.335-1.595-1.465-2.637l-10.01-66.357h4.199l9.912,65.82c0,0.033,0.098,0.049,0.293,0.049
		c0.098,0,0.179-0.113,0.244-0.342l14.941-53.76c0.65-2.246,2.1-3.369,4.346-3.369c2.213,0,3.629,1.123,4.248,3.369l14.941,53.76
		c0.064,0.229,0.179,0.342,0.342,0.342c0.064,0,0.13-0.016,0.195-0.049l9.961-65.82H833.357z"/>
	<path fill="#FFFFFF" d="M879.598,461.035l1.514-1.416l2.881,2.979l-1.465,1.416c-4.265,4.167-10.856,6.25-19.775,6.25
		c-5.6,0-10.531-0.896-14.795-2.686c-6.479-2.701-9.717-6.738-9.717-12.109v-24.17c0-4.752,2.425-8.496,7.275-11.23
		c4.264-2.376,9.456-3.564,15.576-3.564c6.087,0,11.263,1.188,15.527,3.564c4.85,2.734,7.275,6.479,7.275,11.23v7.373
		c0,1.889-0.668,3.483-2.002,4.785c-1.335,1.335-2.93,2.002-4.785,2.002h-34.717v10.01c0,3.516,2.393,6.283,7.178,8.301
		c4.817,2.019,10.335,2.751,16.553,2.197C872.338,465.414,876.83,463.77,879.598,461.035z M842.391,441.309h34.717
		c0.716,0,1.334-0.26,1.855-0.781c0.521-0.521,0.781-1.139,0.781-1.855v-7.373c0-3.189-1.807-5.762-5.42-7.715
		c-3.581-1.953-7.992-2.93-13.232-2.93c-5.014,0-9.294,0.912-12.842,2.734c-3.906,1.986-5.859,4.623-5.859,7.91V441.309z"/>
	<path fill="#FFFFFF" d="M914.656,416.455c6.087,0,11.263,1.188,15.527,3.564c4.85,2.734,7.275,6.479,7.275,11.23v24.17
		c0,4.753-2.426,8.496-7.275,11.23c-4.265,2.377-9.44,3.564-15.527,3.564c-8.139,0-14.372-1.937-18.701-5.811v4.883h-4.15v-70.02
		h4.15v22.998C900.284,418.393,906.518,416.455,914.656,416.455z M933.309,431.25c0-3.287-1.953-5.924-5.859-7.91
		c-3.549-1.822-7.813-2.734-12.793-2.734c-5.014,0-9.294,0.912-12.842,2.734c-3.906,1.986-5.859,4.623-5.859,7.91v24.17
		c0,3.288,1.953,5.925,5.859,7.91c3.548,1.823,7.828,2.734,12.842,2.734c4.98,0,9.244-0.911,12.793-2.734
		c3.906-1.985,5.859-4.622,5.859-7.91V431.25z"/>
	<path fill="#FFFFFF" d="M1013.729,457.275c-0.326,4.004-0.146,6.625,0.537,7.861h1.709v4.15h-2.051
		c-1.042,0-1.921-0.391-2.637-1.172c-0.717-0.781-1.221-2.034-1.514-3.76c-4.33,3.906-10.563,5.859-18.701,5.859
		c-6.12,0-11.313-1.188-15.576-3.564c-4.851-2.734-7.275-6.478-7.275-11.23v-5.078c0-4.752,2.425-8.479,7.275-11.182
		c4.264-2.408,9.456-3.613,15.576-3.613c8.105,0,14.322,1.938,18.652,5.811V431.25c0-3.548-2.197-6.314-6.592-8.301
		c-4.297-1.92-9.294-2.652-14.99-2.197c-5.697,0.488-9.994,2.002-12.891,4.541l-1.563,1.367l-2.734-3.125l1.563-1.367
		c3.516-3.092,8.512-4.947,14.99-5.566c6.478-0.586,12.256,0.261,17.334,2.539c6.021,2.734,9.033,6.771,9.033,12.109v24.805
		C1013.842,456.511,1013.793,456.918,1013.729,457.275z M991.072,466.064c4.654,0,8.707-0.813,12.158-2.441
		c3.809-1.758,5.94-4.102,6.396-7.031c0-0.162,0.016-0.293,0.049-0.391l0.049-0.439c0-0.195,0-0.309,0-0.342v-5.078
		c0-3.287-1.953-5.924-5.859-7.91c-3.549-1.79-7.813-2.686-12.793-2.686c-5.014,0-9.294,0.896-12.842,2.686
		c-3.906,1.986-5.859,4.623-5.859,7.91v5.078c0,3.288,1.953,5.925,5.859,7.91C981.778,465.153,986.059,466.064,991.072,466.064z"/>
	<path fill="#FFFFFF" d="M1046.346,416.455c6.152,0,11.377,1.188,15.674,3.564c4.915,2.734,7.373,6.479,7.373,11.23v38.037h-4.15
		V431.25c0-3.287-1.986-5.924-5.957-7.91c-3.581-1.822-7.895-2.734-12.939-2.734c-5.078,0-9.392,0.912-12.939,2.734
		c-3.972,1.986-5.957,4.623-5.957,7.91v38.037h-4.15v-51.904h4.15v4.883C1031.844,418.393,1038.143,416.455,1046.346,416.455z"/>
	<path fill="#FFFFFF" d="M1119.686,399.268h4.15v70.02h-4.15v-4.883c-4.33,3.874-10.547,5.811-18.652,5.811
		c-6.12,0-11.313-1.188-15.576-3.564c-4.851-2.734-7.275-6.478-7.275-11.23v-24.17c0-4.752,2.425-8.496,7.275-11.23
		c4.264-2.376,9.456-3.564,15.576-3.564c8.105,0,14.322,1.938,18.652,5.811V399.268z M1101.033,466.064
		c4.98,0,9.244-0.911,12.793-2.734c3.906-1.985,5.859-4.622,5.859-7.91v-24.17c0-3.287-1.953-5.924-5.859-7.91
		c-3.549-1.822-7.813-2.734-12.793-2.734c-5.014,0-9.294,0.912-12.842,2.734c-3.906,1.986-5.859,4.623-5.859,7.91v24.17
		c0,3.288,1.953,5.925,5.859,7.91C1091.739,465.153,1096.02,466.064,1101.033,466.064z"/>
	<path fill="#FFFFFF" d="M1212.898,469.287l-8.008-66.064c-0.065-0.032-0.146-0.049-0.244-0.049c-0.131,0-0.229,0.114-0.293,0.342
		l-14.941,53.76c-0.586,2.246-2.019,3.369-4.297,3.369c-2.246,0-3.679-1.123-4.297-3.369l-14.941-53.809
		c-0.065-0.195-0.163-0.293-0.293-0.293c-0.131,0-0.229,0.033-0.293,0.098l-7.959,66.016h-4.199l8.057-66.602
		c0.13-1.041,0.618-1.92,1.465-2.637c0.846-0.684,1.822-1.025,2.93-1.025c2.278,0,3.711,1.123,4.297,3.369l14.941,53.76
		c0.064,0.195,0.162,0.293,0.293,0.293c0.13,0,0.228-0.081,0.293-0.244l14.941-53.809c0.618-2.246,2.051-3.369,4.297-3.369
		c1.139,0,2.115,0.342,2.93,1.025c0.846,0.717,1.318,1.596,1.416,2.637l8.105,66.602H1212.898z"/>
	<path fill="#FFFFFF" d="M1244.832,416.504c6.087,0,11.263,1.188,15.527,3.564c4.85,2.734,7.275,6.479,7.275,11.23v24.17
		c0,4.753-2.426,8.496-7.275,11.23c-4.265,2.377-9.44,3.564-15.527,3.564c-6.12,0-11.313-1.188-15.576-3.564
		c-4.851-2.734-7.275-6.478-7.275-11.23v-24.17c0-4.752,2.425-8.496,7.275-11.23C1233.52,417.692,1238.712,416.504,1244.832,416.504
		z M1263.484,431.299c0-3.287-1.953-5.924-5.859-7.91c-3.549-1.822-7.813-2.734-12.793-2.734c-5.014,0-9.294,0.912-12.842,2.734
		c-3.906,1.986-5.859,4.623-5.859,7.91v24.17c0,3.288,1.953,5.925,5.859,7.91c3.548,1.823,7.828,2.734,12.842,2.734
		c4.98,0,9.244-0.911,12.793-2.734c3.906-1.985,5.859-4.622,5.859-7.91V431.299z"/>
	<path fill="#FFFFFF" d="M1299.764,416.455c6.087,0,11.263,1.188,15.527,3.564c4.85,2.734,7.275,6.479,7.275,11.23v24.17
		c0,4.753-2.426,8.496-7.275,11.23c-4.265,2.377-9.44,3.564-15.527,3.564c-8.139,0-14.372-1.937-18.701-5.811v4.883h-4.15v-70.02
		h4.15v22.998C1285.392,418.393,1291.625,416.455,1299.764,416.455z M1318.416,431.25c0-3.287-1.953-5.924-5.859-7.91
		c-3.549-1.822-7.813-2.734-12.793-2.734c-5.014,0-9.294,0.912-12.842,2.734c-3.906,1.986-5.859,4.623-5.859,7.91v24.17
		c0,3.288,1.953,5.925,5.859,7.91c3.548,1.823,7.828,2.734,12.842,2.734c4.98,0,9.244-0.911,12.793-2.734
		c3.906-1.985,5.859-4.622,5.859-7.91V431.25z"/>
	<path fill="#FFFFFF" d="M1337.239,400.269c0.667,0.668,1.001,1.474,1.001,2.417c0,0.977-0.334,1.799-1.001,2.466
		c-0.668,0.668-1.474,1.001-2.417,1.001c-0.977,0-1.799-0.333-2.466-1.001c-0.668-0.667-1.001-1.489-1.001-2.466
		c0-0.943,0.333-1.749,1.001-2.417c0.667-0.667,1.489-1.001,2.466-1.001C1335.766,399.268,1336.571,399.602,1337.239,400.269z
		 M1332.723,469.287h4.15v-51.904h-4.15V469.287z"/>
	<path fill="#FFFFFF" d="M1353.621,461.328c0,1.042,0.391,1.938,1.172,2.686c0.748,0.749,1.644,1.123,2.686,1.123h4.443v4.15h-4.443
		c-2.214,0-4.102-0.781-5.664-2.344s-2.344-3.434-2.344-5.615v-62.061h4.15V461.328z"/>
	<path fill="#FFFFFF" d="M1407.82,461.035l1.514-1.416l2.881,2.979l-1.465,1.416c-4.265,4.167-10.856,6.25-19.775,6.25
		c-5.6,0-10.531-0.896-14.795-2.686c-6.479-2.701-9.717-6.738-9.717-12.109v-24.17c0-4.752,2.425-8.496,7.275-11.23
		c4.264-2.376,9.456-3.564,15.576-3.564c6.087,0,11.263,1.188,15.527,3.564c4.85,2.734,7.275,6.479,7.275,11.23v7.373
		c0,1.889-0.668,3.483-2.002,4.785c-1.335,1.335-2.93,2.002-4.785,2.002h-34.717v10.01c0,3.516,2.393,6.283,7.178,8.301
		c4.817,2.019,10.335,2.751,16.553,2.197C1400.561,465.414,1405.053,463.77,1407.82,461.035z M1370.613,441.309h34.717
		c0.716,0,1.334-0.26,1.855-0.781c0.521-0.521,0.781-1.139,0.781-1.855v-7.373c0-3.189-1.807-5.762-5.42-7.715
		c-3.581-1.953-7.992-2.93-13.232-2.93c-5.014,0-9.294,0.912-12.842,2.734c-3.906,1.986-5.859,4.623-5.859,7.91V441.309z"/>
	<path fill="#FFFFFF" d="M1488.777,469.287l-6.592-25h-31.738l-6.543,25h-4.346l15.039-57.275c1.172-4.492,2.783-7.975,4.834-10.449
		c2.051-2.474,4.346-3.711,6.885-3.711s4.834,1.237,6.885,3.711c2.051,2.475,3.662,5.957,4.834,10.449l15.039,57.275H1488.777z
		 M1481.111,440.137l-7.08-27.051c-0.977-3.743-2.246-6.607-3.809-8.594c-1.303-1.627-2.604-2.441-3.906-2.441
		c-1.27,0-2.556,0.814-3.857,2.441c-1.563,1.986-2.832,4.851-3.809,8.594l-7.129,27.051H1481.111z"/>
	<path fill="#FFFFFF" d="M1521.297,416.455c6.087,0,11.263,1.188,15.527,3.564c4.85,2.734,7.275,6.479,7.275,11.23v24.17
		c0,4.753-2.426,8.496-7.275,11.23c-4.265,2.377-9.44,3.564-15.527,3.564c-8.139,0-14.372-1.937-18.701-5.811v28.516h-4.15v-75.537
		h4.15v4.883C1506.925,418.393,1513.158,416.455,1521.297,416.455z M1539.949,431.25c0-3.287-1.953-5.924-5.859-7.91
		c-3.549-1.822-7.813-2.734-12.793-2.734c-5.014,0-9.294,0.912-12.842,2.734c-3.906,1.986-5.859,4.623-5.859,7.91v24.17
		c0,3.288,1.953,5.925,5.859,7.91c3.548,1.823,7.828,2.734,12.842,2.734c4.98,0,9.244-0.911,12.793-2.734
		c3.906-1.985,5.859-4.622,5.859-7.91V431.25z"/>
	<path fill="#FFFFFF" d="M1576.229,416.455c6.087,0,11.263,1.188,15.527,3.564c4.85,2.734,7.275,6.479,7.275,11.23v24.17
		c0,4.753-2.426,8.496-7.275,11.23c-4.265,2.377-9.44,3.564-15.527,3.564c-8.139,0-14.372-1.937-18.701-5.811v28.516h-4.15v-75.537
		h4.15v4.883C1561.856,418.393,1568.09,416.455,1576.229,416.455z M1594.881,431.25c0-3.287-1.953-5.924-5.859-7.91
		c-3.549-1.822-7.813-2.734-12.793-2.734c-5.014,0-9.294,0.912-12.842,2.734c-3.906,1.986-5.859,4.623-5.859,7.91v24.17
		c0,3.288,1.953,5.925,5.859,7.91c3.548,1.823,7.828,2.734,12.842,2.734c4.98,0,9.244-0.911,12.793-2.734
		c3.906-1.985,5.859-4.622,5.859-7.91V431.25z"/>
	<path fill="#FFFFFF" d="M1613.436,461.328c0,1.042,0.391,1.938,1.172,2.686c0.748,0.749,1.644,1.123,2.686,1.123h4.443v4.15h-4.443
		c-2.214,0-4.102-0.781-5.664-2.344s-2.344-3.434-2.344-5.615v-62.061h4.15V461.328z"/>
	<path fill="#FFFFFF" d="M1633.138,400.269c0.667,0.668,1.001,1.474,1.001,2.417c0,0.977-0.334,1.799-1.001,2.466
		c-0.668,0.668-1.474,1.001-2.417,1.001c-0.977,0-1.799-0.333-2.466-1.001c-0.668-0.667-1.001-1.489-1.001-2.466
		c0-0.943,0.333-1.749,1.001-2.417c0.667-0.667,1.489-1.001,2.466-1.001C1631.664,399.268,1632.47,399.602,1633.138,400.269z
		 M1628.621,469.287h4.15v-51.904h-4.15V469.287z"/>
	<path fill="#FFFFFF" d="M1656.014,422.705c-5.307,2.019-7.959,4.883-7.959,8.594v24.17c0,3.386,2.262,6.088,6.787,8.105
		c4.688,2.084,10.156,2.881,16.406,2.393c6.25-0.455,10.84-2.002,13.77-4.639l1.563-1.416l2.783,3.076l-1.563,1.416
		c-4.33,3.906-10.775,5.859-19.336,5.859c-5.859,0-10.971-0.961-15.332-2.881c-6.152-2.734-9.229-6.705-9.229-11.914v-24.17
		c0-5.631,3.531-9.798,10.596-12.5c5.599-2.115,11.832-2.799,18.701-2.051c7.227,0.814,12.451,3.044,15.674,6.689l1.416,1.563
		l-3.125,2.783l-1.367-1.563c-2.507-2.799-6.836-4.557-12.988-5.273C1666.625,420.199,1661.026,420.785,1656.014,422.705z"/>
	<path fill="#FFFFFF" d="M1741.658,457.275c-0.326,4.004-0.146,6.625,0.537,7.861h1.709v4.15h-2.051
		c-1.042,0-1.921-0.391-2.637-1.172c-0.717-0.781-1.221-2.034-1.514-3.76c-4.33,3.906-10.563,5.859-18.701,5.859
		c-6.12,0-11.313-1.188-15.576-3.564c-4.851-2.734-7.275-6.478-7.275-11.23v-5.078c0-4.752,2.425-8.479,7.275-11.182
		c4.264-2.408,9.456-3.613,15.576-3.613c8.105,0,14.322,1.938,18.652,5.811V431.25c0-3.548-2.197-6.314-6.592-8.301
		c-4.297-1.92-9.294-2.652-14.99-2.197c-5.697,0.488-9.994,2.002-12.891,4.541l-1.563,1.367l-2.734-3.125l1.563-1.367
		c3.516-3.092,8.512-4.947,14.99-5.566c6.478-0.586,12.256,0.261,17.334,2.539c6.021,2.734,9.033,6.771,9.033,12.109v24.805
		C1741.771,456.511,1741.723,456.918,1741.658,457.275z M1719.002,466.064c4.654,0,8.707-0.813,12.158-2.441
		c3.809-1.758,5.94-4.102,6.396-7.031c0-0.162,0.016-0.293,0.049-0.391l0.049-0.439c0-0.195,0-0.309,0-0.342v-5.078
		c0-3.287-1.953-5.924-5.859-7.91c-3.549-1.79-7.813-2.686-12.793-2.686c-5.014,0-9.294,0.896-12.842,2.686
		c-3.906,1.986-5.859,4.623-5.859,7.91v5.078c0,3.288,1.953,5.925,5.859,7.91C1709.708,465.153,1713.988,466.064,1719.002,466.064z"
		/>
	<path fill="#FFFFFF" d="M1758.699,417.383h10.986v4.15h-10.986v39.795c0,1.042,0.374,1.938,1.123,2.686
		c0.748,0.749,1.644,1.123,2.686,1.123h7.178v4.15h-7.178c-2.214,0-4.102-0.781-5.664-2.344s-2.344-3.434-2.344-5.615v-39.795
		h-7.568v-4.15h7.568v-18.115h4.199V417.383z"/>
	<path fill="#FFFFFF" d="M1781.038,400.269c0.667,0.668,1.001,1.474,1.001,2.417c0,0.977-0.334,1.799-1.001,2.466
		c-0.668,0.668-1.474,1.001-2.417,1.001c-0.977,0-1.799-0.333-2.466-1.001c-0.668-0.667-1.001-1.489-1.001-2.466
		c0-0.943,0.333-1.749,1.001-2.417c0.667-0.667,1.489-1.001,2.466-1.001C1779.564,399.268,1780.37,399.602,1781.038,400.269z
		 M1776.521,469.287h4.15v-51.904h-4.15V469.287z"/>
	<path fill="#FFFFFF" d="M1814.656,416.504c6.087,0,11.263,1.188,15.527,3.564c4.85,2.734,7.275,6.479,7.275,11.23v24.17
		c0,4.753-2.426,8.496-7.275,11.23c-4.265,2.377-9.44,3.564-15.527,3.564c-6.12,0-11.313-1.188-15.576-3.564
		c-4.851-2.734-7.275-6.478-7.275-11.23v-24.17c0-4.752,2.425-8.496,7.275-11.23
		C1803.344,417.692,1808.536,416.504,1814.656,416.504z M1833.309,431.299c0-3.287-1.953-5.924-5.859-7.91
		c-3.549-1.822-7.813-2.734-12.793-2.734c-5.014,0-9.294,0.912-12.842,2.734c-3.906,1.986-5.859,4.623-5.859,7.91v24.17
		c0,3.288,1.953,5.925,5.859,7.91c3.548,1.823,7.828,2.734,12.842,2.734c4.98,0,9.244-0.911,12.793-2.734
		c3.906-1.985,5.859-4.622,5.859-7.91V431.299z"/>
	<path fill="#FFFFFF" d="M1869.295,416.455c6.152,0,11.377,1.188,15.674,3.564c4.915,2.734,7.373,6.479,7.373,11.23v38.037h-4.15
		V431.25c0-3.287-1.986-5.924-5.957-7.91c-3.581-1.822-7.895-2.734-12.939-2.734c-5.078,0-9.392,0.912-12.939,2.734
		c-3.972,1.986-5.957,4.623-5.957,7.91v38.037h-4.15v-51.904h4.15v4.883C1854.793,418.393,1861.092,416.455,1869.295,416.455z"/>
	<path fill="#FFFFFF" d="M1949.471,398.291c9.212,0.033,16.602,3.939,22.168,11.719c5.013,7.031,7.52,15.527,7.52,25.488
		c0,9.375-2.409,17.351-7.227,23.926c-5.469,7.52-12.973,11.295-22.51,11.328h-8.008c-7.031,0-11.442-0.781-13.232-2.344
		c-1.758-1.529-2.637-5.371-2.637-11.523v-44.775c0-6.152,0.879-9.993,2.637-11.523c1.758-1.529,6.152-2.295,13.184-2.295H1949.471z
		 M1949.422,466.602c8.268-0.064,14.729-3.336,19.385-9.814c4.134-5.729,6.201-12.825,6.201-21.289
		c0-8.854-2.165-16.406-6.494-22.656c-4.785-6.9-11.133-10.367-19.043-10.4h-8.105c-5.99,0-9.473,0.424-10.449,1.27
		c-0.814,0.749-1.221,3.549-1.221,8.398v44.775c0,4.883,0.406,7.683,1.221,8.398c0.977,0.879,4.476,1.318,10.498,1.318H1949.422z"/>
	<path fill="#FFFFFF" d="M2028.328,461.035l1.514-1.416l2.881,2.979l-1.465,1.416c-4.265,4.167-10.856,6.25-19.775,6.25
		c-5.6,0-10.531-0.896-14.795-2.686c-6.479-2.701-9.717-6.738-9.717-12.109v-24.17c0-4.752,2.425-8.496,7.275-11.23
		c4.264-2.376,9.456-3.564,15.576-3.564c6.087,0,11.263,1.188,15.527,3.564c4.85,2.734,7.275,6.479,7.275,11.23v7.373
		c0,1.889-0.668,3.483-2.002,4.785c-1.335,1.335-2.93,2.002-4.785,2.002h-34.717v10.01c0,3.516,2.393,6.283,7.178,8.301
		c4.817,2.019,10.335,2.751,16.553,2.197C2021.068,465.414,2025.561,463.77,2028.328,461.035z M1991.121,441.309h34.717
		c0.716,0,1.334-0.26,1.855-0.781c0.521-0.521,0.781-1.139,0.781-1.855v-7.373c0-3.189-1.807-5.762-5.42-7.715
		c-3.581-1.953-7.992-2.93-13.232-2.93c-5.014,0-9.294,0.912-12.842,2.734c-3.906,1.986-5.859,4.623-5.859,7.91V441.309z"/>
	<path fill="#FFFFFF" d="M2082.82,417.383l-19.824,48.828c-0.977,2.377-2.328,3.564-4.053,3.564
		c-1.791-0.033-3.142-1.236-4.053-3.613l-18.994-48.779h4.492l18.359,47.266c0.064,0.163,0.13,0.31,0.195,0.439
		c0.064-0.13,0.13-0.276,0.195-0.439l19.189-47.266H2082.82z"/>
	<path fill="#FFFFFF" d="M2128.816,461.035l1.514-1.416l2.881,2.979l-1.465,1.416c-4.265,4.167-10.856,6.25-19.775,6.25
		c-5.6,0-10.531-0.896-14.795-2.686c-6.479-2.701-9.717-6.738-9.717-12.109v-24.17c0-4.752,2.425-8.496,7.275-11.23
		c4.264-2.376,9.456-3.564,15.576-3.564c6.087,0,11.263,1.188,15.527,3.564c4.85,2.734,7.275,6.479,7.275,11.23v7.373
		c0,1.889-0.668,3.483-2.002,4.785c-1.335,1.335-2.93,2.002-4.785,2.002h-34.717v10.01c0,3.516,2.393,6.283,7.178,8.301
		c4.817,2.019,10.335,2.751,16.553,2.197C2121.557,465.414,2126.049,463.77,2128.816,461.035z M2091.609,441.309h34.717
		c0.716,0,1.334-0.26,1.855-0.781c0.521-0.521,0.781-1.139,0.781-1.855v-7.373c0-3.189-1.807-5.762-5.42-7.715
		c-3.581-1.953-7.992-2.93-13.232-2.93c-5.014,0-9.294,0.912-12.842,2.734c-3.906,1.986-5.859,4.623-5.859,7.91V441.309z"/>
	<path fill="#FFFFFF" d="M2146.15,461.328c0,1.042,0.391,1.938,1.172,2.686c0.748,0.749,1.644,1.123,2.686,1.123h4.443v4.15h-4.443
		c-2.214,0-4.102-0.781-5.664-2.344s-2.344-3.434-2.344-5.615v-62.061h4.15V461.328z"/>
	<path fill="#FFFFFF" d="M2181.844,416.504c6.087,0,11.263,1.188,15.527,3.564c4.85,2.734,7.275,6.479,7.275,11.23v24.17
		c0,4.753-2.426,8.496-7.275,11.23c-4.265,2.377-9.44,3.564-15.527,3.564c-6.12,0-11.313-1.188-15.576-3.564
		c-4.851-2.734-7.275-6.478-7.275-11.23v-24.17c0-4.752,2.425-8.496,7.275-11.23
		C2170.531,417.692,2175.724,416.504,2181.844,416.504z M2200.496,431.299c0-3.287-1.953-5.924-5.859-7.91
		c-3.549-1.822-7.813-2.734-12.793-2.734c-5.014,0-9.294,0.912-12.842,2.734c-3.906,1.986-5.859,4.623-5.859,7.91v24.17
		c0,3.288,1.953,5.925,5.859,7.91c3.548,1.823,7.828,2.734,12.842,2.734c4.98,0,9.244-0.911,12.793-2.734
		c3.906-1.985,5.859-4.622,5.859-7.91V431.299z"/>
	<path fill="#FFFFFF" d="M2236.775,416.455c6.087,0,11.263,1.188,15.527,3.564c4.85,2.734,7.275,6.479,7.275,11.23v24.17
		c0,4.753-2.426,8.496-7.275,11.23c-4.265,2.377-9.44,3.564-15.527,3.564c-8.139,0-14.372-1.937-18.701-5.811v28.516h-4.15v-75.537
		h4.15v4.883C2222.403,418.393,2228.637,416.455,2236.775,416.455z M2255.428,431.25c0-3.287-1.953-5.924-5.859-7.91
		c-3.549-1.822-7.813-2.734-12.793-2.734c-5.014,0-9.294,0.912-12.842,2.734c-3.906,1.986-5.859,4.623-5.859,7.91v24.17
		c0,3.288,1.953,5.925,5.859,7.91c3.548,1.823,7.828,2.734,12.842,2.734c4.98,0,9.244-0.911,12.793-2.734
		c3.906-1.985,5.859-4.622,5.859-7.91V431.25z"/>
	<path fill="#FFFFFF" d="M2324.813,416.455c5.403,0,9.993,1.188,13.77,3.564c4.297,2.734,6.445,6.479,6.445,11.23v38.037h-4.199
		V431.25c0-3.418-1.693-6.104-5.078-8.057c-2.995-1.725-6.641-2.588-10.938-2.588c-4.265,0-7.895,0.863-10.889,2.588
		c-3.418,1.953-5.127,4.639-5.127,8.057v38.037h-4.199V431.25c0-3.418-1.693-6.104-5.078-8.057
		c-3.027-1.725-6.674-2.588-10.938-2.588c-4.297,0-7.943,0.863-10.938,2.588c-3.418,1.953-5.127,4.639-5.127,8.057v38.037h-4.15
		v-51.904h4.15v4.395c3.873-3.548,9.229-5.322,16.064-5.322c8.626,0,14.664,2.588,18.115,7.764c1.692-2.539,4.264-4.492,7.715-5.859
		C2317.569,417.09,2321.036,416.455,2324.813,416.455z"/>
	<path fill="#FFFFFF" d="M2395.174,461.035l1.514-1.416l2.881,2.979l-1.465,1.416c-4.265,4.167-10.856,6.25-19.775,6.25
		c-5.6,0-10.531-0.896-14.795-2.686c-6.479-2.701-9.717-6.738-9.717-12.109v-24.17c0-4.752,2.425-8.496,7.275-11.23
		c4.264-2.376,9.456-3.564,15.576-3.564c6.087,0,11.263,1.188,15.527,3.564c4.85,2.734,7.275,6.479,7.275,11.23v7.373
		c0,1.889-0.668,3.483-2.002,4.785c-1.335,1.335-2.93,2.002-4.785,2.002h-34.717v10.01c0,3.516,2.393,6.283,7.178,8.301
		c4.817,2.019,10.335,2.751,16.553,2.197C2387.914,465.414,2392.406,463.77,2395.174,461.035z M2357.967,441.309h34.717
		c0.716,0,1.334-0.26,1.855-0.781c0.521-0.521,0.781-1.139,0.781-1.855v-7.373c0-3.189-1.807-5.762-5.42-7.715
		c-3.581-1.953-7.992-2.93-13.232-2.93c-5.014,0-9.294,0.912-12.842,2.734c-3.906,1.986-5.859,4.623-5.859,7.91V441.309z"/>
	<path fill="#FFFFFF" d="M2429.939,416.455c6.152,0,11.377,1.188,15.674,3.564c4.915,2.734,7.373,6.479,7.373,11.23v38.037h-4.15
		V431.25c0-3.287-1.986-5.924-5.957-7.91c-3.581-1.822-7.895-2.734-12.939-2.734c-5.078,0-9.392,0.912-12.939,2.734
		c-3.972,1.986-5.957,4.623-5.957,7.91v38.037h-4.15v-51.904h4.15v4.883C2415.438,418.393,2421.736,416.455,2429.939,416.455z"/>
	<path fill="#FFFFFF" d="M2469.246,417.383h10.986v4.15h-10.986v39.795c0,1.042,0.374,1.938,1.123,2.686
		c0.748,0.749,1.644,1.123,2.686,1.123h7.178v4.15h-7.178c-2.214,0-4.102-0.781-5.664-2.344s-2.344-3.434-2.344-5.615v-39.795
		h-7.568v-4.15h7.568v-18.115h4.199V417.383z"/>
</g>
</svg>
