<?xml version="1.0" encoding="utf-8"?>
<!-- Generator: Adobe Illustrator 16.0.0, SVG Export Plug-In . SVG Version: 6.00 Build 0)  -->
<!DOCTYPE svg PUBLIC "-//W3C//DTD SVG 1.1//EN" "http://www.w3.org/Graphics/SVG/1.1/DTD/svg11.dtd">
<svg version="1.1" id="Layer_1" xmlns="http://www.w3.org/2000/svg" xmlns:xlink="http://www.w3.org/1999/xlink" x="0px" y="0px"
	 width="2971px" height="505.287px" viewBox="0 0 2971 505.287" enable-background="new 0 0 2971 505.287" xml:space="preserve">
<text transform="matrix(1 0 0 1 665.3823 988.3926)" fill="#FF0000" font-family="'Montserrat-Regular'" font-size="68.3876"> </text>
<g>
	<polygon fill="none" points="300.825,155.581 365.452,214.941 430.557,155.581 365.452,96.7 	"/>
	<path fill="#FF0000" d="M701.106,339.163h33.668L393.452,28L52.608,339.163h30.344c-0.438,28.563,75.661,142.985,75.661,142.985
		v-9.545V338.973l117.554-107.041l117.285,107.231l117.763-107.231l117.764,107.231h0.054l0.002,0.024v120.996
		C629.034,460.184,691.598,376.74,701.106,339.163z M393.452,242.941l-64.626-59.36l64.626-58.881l65.105,58.881L393.452,242.941z"
		/>
</g>
<path fill="none" stroke="#111111" stroke-width="85.1506" stroke-miterlimit="10" d="M1367.657-274.833"/>
<g>
	<path fill="#FFFFFF" d="M960.993,133.916c9.063,0,17.662,1.737,25.8,5.2c8.132,3.469,15.2,8.2,21.2,14.2s10.731,13.069,14.2,21.2
		c3.462,8.137,5.2,16.737,5.2,25.8v213.6h-66v-106.8h-88.801v106.8h-66v-280H960.993z M872.593,245.916h88.801v-20.4
		c-0.27-8-2.4-14.199-6.4-18.6c-4-4.4-10.269-6.6-18.8-6.6h-63.601V245.916z"/>
	<path fill="#FFFFFF" d="M1058.589,133.916h216v132c0,12-3,23.068-9,33.2c-6,10.138-13.8,18.138-23.399,24l32.399,90.8h-70.188
		l-29.681-81.6h-50.132v81.6h-66V133.916z M1183.271,265.916c8.575,0,14.869-2.213,18.888-6.638s6.162-10.669,6.431-18.719v-40.244
		h-84v65.6H1183.271z"/>
	<path fill="#FFFFFF" d="M1439.785,199.916v214h-66v-214h-71.6v-66.4h209.2v66.4H1439.785z"/>
	<path fill="#FFFFFF" d="M1535.383,133.916h66v280h-66V133.916z"/>
	<path fill="#FFFFFF" d="M1818.182,133.916v66.4h-122.4v33.2h96.4v58.801h-96.4v121.6h-66v-280H1818.182z"/>
	<path fill="#FFFFFF" d="M1846.181,133.916h66v280h-66V133.916z"/>
	<path fill="#FFFFFF" d="M2009.779,347.516h132v66.4h-198v-213.2c0-9.063,1.731-17.662,5.2-25.8
		c3.462-8.131,8.199-15.263,14.199-21.4c6-6.131,13-10.931,21-14.4c8-3.463,16.663-5.2,26-5.2h131.601v66.4h-106.8
		c-6.4,0.269-11.27,1.675-14.601,4.212c-3.337,2.538-5.8,5.413-7.399,8.625c-1.869,3.744-2.938,7.888-3.2,12.432V347.516z"/>
	<path fill="#FFFFFF" d="M2175.773,133.916h188.4v66.4h-122.4v33.2h96.4v58.801h-96.4v55.199h122v66.4h-188V133.916z"/>
	<path fill="#FFFFFF" d="M2396.168,133.916h216v132c0,12-3,23.068-9,33.2c-6,10.138-13.8,18.138-23.399,24l32.399,90.8h-70.188
		l-29.681-81.6h-50.132v81.6h-66V133.916z M2520.85,265.916c8.575,0,14.869-2.213,18.888-6.638s6.162-10.669,6.431-18.719v-40.244
		h-84v65.6H2520.85z"/>
	<path fill="#FFFFFF" d="M2773.767,300.316h-131.2v-100c0-9.063,1.731-17.663,5.2-25.8c3.463-8.131,8.2-15.2,14.2-21.2
		s13-10.731,21-14.2c8-3.463,16.662-5.2,26-5.2h131.2v66.4h-106.4c-16.537,0-24.938,7.738-25.2,23.2v10.4h131.2v113.2
		c0,9.337-1.737,18-5.2,26c-3.469,8-8.2,15.068-14.2,21.2c-6,6.137-13.068,10.938-21.199,14.399c-8.138,3.469-16.738,5.2-25.801,5.2
		h-130.8v-66.4h106c6.132,0,10.932-1.406,14.4-4.23c3.462-2.825,6-5.988,7.6-9.488c1.862-4.031,2.932-8.6,3.2-13.712V300.316z"/>
</g>
</svg>
