<?xml version="1.0" encoding="utf-8"?>
<!-- Generator: Adobe Illustrator 16.0.0, SVG Export Plug-In . SVG Version: 6.00 Build 0)  -->
<!DOCTYPE svg PUBLIC "-//W3C//DTD SVG 1.1//EN" "http://www.w3.org/Graphics/SVG/1.1/DTD/svg11.dtd">
<svg version="1.1" id="Layer_2_1_" xmlns="http://www.w3.org/2000/svg" xmlns:xlink="http://www.w3.org/1999/xlink" x="0px" y="0px"
	 width="706.432px" height="706.432px" viewBox="148.284 145.284 706.432 706.432"
	 enable-background="new 148.284 145.284 706.432 706.432" xml:space="preserve">
<g>
	<path fill="#61DAFB" d="M791.424,498.634c0-38.603-48.343-75.187-122.461-97.874c17.104-75.543,9.502-135.645-23.993-154.887
		c-7.721-4.514-16.748-6.652-26.606-6.652v26.488c5.464,0,9.858,1.069,13.541,3.088c16.153,9.265,23.162,44.542,17.697,89.916
		c-1.306,11.166-3.444,22.924-6.057,34.921c-23.281-5.701-48.7-10.096-75.425-12.947c-16.035-21.974-32.665-41.929-49.412-59.39
		c38.722-35.99,75.068-55.707,99.774-55.707v-26.488l0,0c-32.664,0-75.425,23.281-118.66,63.666
		c-43.236-40.147-85.996-63.19-118.66-63.19v26.488c24.587,0,61.052,19.599,99.773,55.351
		c-16.629,17.46-33.258,37.296-49.055,59.271c-26.845,2.851-52.264,7.246-75.544,13.066c-2.731-11.878-4.751-23.4-6.177-34.446
		c-5.582-45.374,1.307-80.651,17.342-90.034c3.563-2.138,8.196-3.088,13.66-3.088v-26.488l0,0c-9.978,0-19.005,2.138-26.845,6.652
		c-33.377,19.242-40.859,79.226-23.637,154.531c-73.88,22.806-121.986,59.271-121.986,97.755c0,38.604,48.343,75.188,122.461,97.874
		c-17.104,75.543-9.503,135.646,23.993,154.888c7.721,4.514,16.748,6.651,26.725,6.651c32.665,0,75.425-23.28,118.66-63.665
		c43.236,40.147,85.996,63.19,118.661,63.19c9.977,0,19.004-2.139,26.844-6.652c33.377-19.242,40.859-79.225,23.637-154.531
		C743.318,573.702,791.424,537.118,791.424,498.634z M636.773,419.408c-4.395,15.322-9.858,31.12-16.035,46.918
		c-4.869-9.502-9.977-19.005-15.56-28.507c-5.464-9.503-11.284-18.768-17.104-27.794
		C604.941,412.52,621.214,415.607,636.773,419.408z M582.373,545.908c-9.265,16.035-18.767,31.238-28.626,45.373
		c-17.697,1.545-35.634,2.376-53.688,2.376c-17.936,0-35.871-0.831-53.451-2.257c-9.858-14.135-19.479-29.22-28.744-45.136
		c-9.027-15.561-17.223-31.357-24.706-47.274c7.364-15.916,15.679-31.833,24.587-47.393c9.265-16.035,18.768-31.239,28.626-45.374
		c17.698-1.544,35.634-2.375,53.688-2.375c17.936,0,35.871,0.831,53.45,2.257c9.858,14.135,19.479,29.22,28.744,45.136
		c9.027,15.561,17.224,31.357,24.707,47.274C599.478,514.432,591.281,530.348,582.373,545.908z M620.738,530.467
		c6.414,15.916,11.879,31.833,16.392,47.274c-15.56,3.801-31.951,7.008-48.937,9.502c5.82-9.146,11.641-18.529,17.104-28.15
		C610.762,549.59,615.869,539.969,620.738,530.467z M500.297,657.204c-11.047-11.403-22.093-24.112-33.021-38.01
		c10.69,0.476,21.618,0.832,32.664,0.832c11.165,0,22.212-0.237,33.021-0.832C522.271,633.092,511.225,645.801,500.297,657.204z
		 M411.926,587.243c-16.867-2.494-33.14-5.583-48.7-9.384c4.396-15.322,9.859-31.12,16.035-46.917
		c4.87,9.502,9.978,19.004,15.561,28.507C400.404,568.951,406.105,578.216,411.926,587.243z M499.703,340.064
		c11.047,11.403,22.093,24.112,33.021,38.009c-10.69-0.475-21.618-0.831-32.664-0.831c-11.165,0-22.212,0.237-33.021,0.831
		C477.729,364.176,488.775,351.467,499.703,340.064z M411.807,410.025c-5.82,9.146-11.641,18.529-17.104,28.15
		c-5.464,9.502-10.571,19.004-15.44,28.507c-6.414-15.917-11.879-31.833-16.392-47.274
		C378.43,415.727,394.821,412.52,411.807,410.025z M304.312,558.736c-42.047-17.936-69.248-41.454-69.248-60.103
		s27.201-42.285,69.248-60.102c10.215-4.396,21.38-8.314,32.902-11.997c6.771,23.28,15.679,47.512,26.725,72.336
		c-10.928,24.706-19.717,48.818-26.368,71.98C325.811,567.17,314.646,563.131,304.312,558.736z M368.215,728.472
		c-16.154-9.265-23.162-44.542-17.698-89.916c1.307-11.165,3.444-22.925,6.058-34.921c23.281,5.701,48.699,10.096,75.425,12.946
		c16.035,21.975,32.664,41.93,49.412,59.39c-38.722,35.99-75.068,55.708-99.774,55.708
		C376.292,731.56,371.778,730.49,368.215,728.472z M649.958,637.962c5.583,45.373-1.306,80.65-17.341,90.034
		c-3.563,2.138-8.196,3.088-13.66,3.088c-24.587,0-61.053-19.598-99.774-55.351c16.629-17.461,33.259-37.297,49.056-59.271
		c26.844-2.851,52.263-7.246,75.544-13.065C646.514,615.394,648.652,626.915,649.958,637.962z M695.688,558.736
		c-10.215,4.395-21.38,8.314-32.902,11.996c-6.771-23.28-15.679-47.511-26.725-72.336c10.928-24.706,19.717-48.818,26.368-71.98
		c11.76,3.683,22.925,7.721,33.377,12.116c42.048,17.936,69.248,41.453,69.248,60.102
		C764.937,517.282,737.736,540.919,695.688,558.736z"/>
	<path fill="#61DAFB" d="M381.043,239.577L381.043,239.577L381.043,239.577z"/>
	<circle fill="#61DAFB" cx="499.94" cy="498.634" r="54.282"/>
	<path fill="#61DAFB" d="M618.244,239.221L618.244,239.221L618.244,239.221z"/>
</g>
</svg>
