<?xml version="1.0" encoding="utf-8"?>
<!-- Generator: Adobe Illustrator 16.0.0, SVG Export Plug-In . SVG Version: 6.00 Build 0)  -->
<!DOCTYPE svg PUBLIC "-//W3C//DTD SVG 1.1//EN" "http://www.w3.org/Graphics/SVG/1.1/DTD/svg11.dtd">
<svg version="1.1" xmlns="http://www.w3.org/2000/svg" xmlns:xlink="http://www.w3.org/1999/xlink" x="0px" y="0px"
	 width="203.132px" height="179.567px" viewBox="0 0 203.132 179.567" enable-background="new 0 0 203.132 179.567"
	 xml:space="preserve">
<g id="BACKGROUND">
</g>
<g id="OBJECTS">
	<g>
		<path fill="none" d="M162.316,149.527h-3.21v9.98h3.21c2.758,0,4.964-2.257,4.964-4.965
			C167.28,151.784,165.074,149.527,162.316,149.527z"/>
		<path fill="none" d="M7.422,146.418H2.207v13.941h5.215c1.956,0,3.661-0.752,4.915-2.006c1.304-1.254,2.056-3.009,2.056-4.965
			c0-1.906-0.752-3.661-2.056-4.915C11.083,147.221,9.378,146.418,7.422,146.418z"/>
		<polygon fill="#FFC724" points="65.237,21.552 102.566,43.104 102.566,0 		"/>
		<polygon fill="#F58B1F" points="102.566,43.104 139.893,21.552 102.566,0 		"/>
		<polygon fill="#EE3E30" points="139.893,64.655 139.893,21.552 102.566,43.104 		"/>
		<polygon fill="#931A3D" points="65.237,64.655 102.566,86.207 102.566,43.104 		"/>
		<polygon fill="#C41E51" points="102.566,86.207 139.893,64.655 102.566,43.104 		"/>
		<polygon fill="#EE3E30" points="65.237,107.758 102.566,86.207 65.237,64.655 		"/>
		<polygon fill="#F58B1F" points="102.566,129.31 102.566,86.207 65.237,107.758 		"/>
		<polygon fill="#FFC724" points="139.893,107.758 102.566,86.207 102.566,129.31 		"/>
		<path fill="#FFFFFF" d="M7.422,144.212H2.207v-0.05H0v34.803h2.207v-16.348h5.215c2.558,0,4.864-1.053,6.519-2.708
			c1.655-1.655,2.658-3.962,2.658-6.519c0-2.507-1.003-4.814-2.658-6.469C12.286,145.265,9.979,144.212,7.422,144.212z
			 M12.336,158.354c-1.253,1.253-2.958,2.006-4.915,2.006H2.207v-13.941h5.215c1.956,0,3.661,0.802,4.915,2.056
			c1.304,1.254,2.056,3.009,2.056,4.915C14.393,155.345,13.641,157.1,12.336,158.354z"/>
		<polygon fill="#FFFFFF" points="28.632,146.318 34.399,146.318 34.399,176.758 28.632,176.758 28.632,178.964 42.373,178.964 
			42.373,176.758 36.606,176.758 36.606,146.318 42.373,146.318 42.373,144.162 28.632,144.162 		"/>
		<path fill="#FFFFFF" d="M63.984,146.017c3.561,0,6.369,2.858,6.369,6.369h2.256c0-4.664-3.711-8.425-8.375-8.525
			c-4.414-0.05-8.826,3.209-8.826,8.525v18.204c0,5.015,3.861,8.375,8.776,8.325c4.764-0.101,8.425-3.46,8.425-8.325h-2.256
			c0,3.51-2.809,6.369-6.319,6.369c-3.561,0-6.419-2.809-6.419-6.369v-18.204C57.616,148.875,60.474,146.017,63.984,146.017z"/>
		<path fill="#FFFFFF" d="M98.535,158.203c-1.154-0.451-2.308-0.802-3.461-1.153v0.05l-0.552-0.201
			c-1.654-0.501-2.607-1.404-2.959-2.407c-0.2-0.551-0.25-1.204-0.15-1.855c0.15-0.652,0.401-1.354,0.803-1.905
			c0.702-0.953,1.755-1.655,3.059-1.655c1.054,0,1.956,0.401,2.608,1.003c0.602,0.552,0.952,1.304,0.952,2.157v4.413h6.269v-4.413
			c0-2.608-1.153-4.965-2.958-6.72c-1.806-1.655-4.213-2.658-6.871-2.658c-3.51,0-6.368,1.755-8.124,4.263
			c-0.952,1.354-1.604,2.909-1.855,4.513c-0.301,1.655-0.15,3.36,0.401,4.964c1.003,2.758,3.21,5.115,7.021,6.269l0.552,0.15v0.05
			c1.054,0.301,2.156,0.652,3.06,1.003c1.153,0.401,1.955,1.153,2.457,2.056c0.552,1.053,0.702,2.307,0.502,3.511
			c-0.201,1.104-0.752,2.106-1.505,2.809c-0.602,0.551-1.454,0.902-2.508,0.902c-1.053,0-1.955-0.401-2.607-1.003
			c-0.602-0.552-0.952-1.304-0.952-2.157v-5.165h-6.27v5.165c0,2.608,1.154,5.015,2.959,6.72c1.806,1.655,4.213,2.658,6.87,2.658
			c2.658,0,4.915-0.953,6.62-2.458c1.855-1.654,3.06-3.911,3.511-6.368c0.451-2.508,0.1-5.216-1.154-7.573
			C103.097,161.012,101.242,159.256,98.535,158.203z"/>
		<path fill="#FFFFFF" d="M133.133,168.534c0,2.307-1.855,4.112-4.112,4.112c-2.307,0-4.112-1.805-4.112-4.112V143.56h-6.269v24.974
			c0,5.717,4.664,10.381,10.381,10.381s10.33-4.664,10.33-10.381V143.56h-6.218V168.534z"/>
		<path fill="#FFFFFF" d="M173.499,154.542c0-5.968-4.613-10.782-10.431-11.183h-10.18v35.405h6.218v-13.039h3.21h0.401
			c0.601,1.605,0.952,3.711,1.253,5.817c0.401,2.407,0.803,5.015,1.655,7.372h6.87c-1.354-2.006-1.855-5.115-2.357-8.375
			c-0.401-2.307-0.752-4.664-1.504-6.771C171.593,161.713,173.499,158.354,173.499,154.542z M162.316,159.507h-3.21v-9.98h3.21
			c2.758,0,4.964,2.257,4.964,5.015C167.28,157.25,165.074,159.507,162.316,159.507z"/>
		<polygon fill="#FFFFFF" points="203.132,149.227 203.132,143.76 186.032,143.76 186.032,178.915 203.132,178.915 203.132,173.348 
			192.3,173.348 192.3,164.422 202.23,164.422 202.23,158.153 192.3,158.153 192.3,149.227 		"/>
	</g>
</g>
</svg>
