<svg width="26" height="26" xmlns="http://www.w3.org/2000/svg">

 <g>
  <title>background</title>
  <rect fill="none" id="canvas_background" height="402" width="582" y="-1" x="-1"/>
 </g>
 <g>
  <title>Layer 1</title>
  <path id="svg_2" fill="#ff0000" d="m24.90216,21.04736c0.02295,-0.04321 0.04218,-0.08551 0.05634,-0.13232c0.01355,-0.04443 0.02069,-0.08856 0.02581,-0.13556c0.00562,-0.05115 0.00653,-0.10046 0.00141,-0.15259c-0.00226,-0.02331 0.00512,-0.04529 0.00061,-0.06878l-1.83106,-9.48194c-0.00665,-0.03406 -0.02691,-0.06042 -0.03772,-0.09241c-0.01049,-0.03155 -0.00982,-0.06439 -0.02478,-0.09509c-0.00757,-0.0155 -0.02166,-0.02466 -0.03015,-0.03937c-0.02722,-0.04785 -0.06122,-0.08721 -0.09753,-0.12732c-0.02924,-0.03216 -0.05591,-0.06457 -0.08978,-0.09082c-0.04096,-0.03198 -0.086,-0.05389 -0.13288,-0.07672c-0.04077,-0.01989 -0.07916,-0.0401 -0.12274,-0.05236c-0.04388,-0.01227 -0.08868,-0.0149 -0.13513,-0.01886c-0.05383,-0.00495 -0.10571,-0.00806 -0.16016,-0.00098c-0.01642,0.00213 -0.03149,-0.00348 -0.04803,-0.00031c-0.0329,0.00635 -0.05817,0.02637 -0.08911,0.03669c-0.03229,0.0108 -0.06604,0.01019 -0.09742,0.02581l-2.75244,1.34546c0.43952,-0.87665 0.79834,-1.96576 0.79834,-3.20581c0,-3.92138 -3.17871,-7.11377 -7.09277,-7.13428c-0.00977,0 -0.01758,0 -0.02539,0s-0.01563,0 -0.02539,0c-3.91504,0.02051 -7.09375,3.2129 -7.09375,7.13428c0,1.22846 0.35272,2.30896 0.78723,3.18195l-3.43372,1.6784c-0.01428,0.00702 -0.0227,0.02008 -0.03631,0.02784c-0.0517,0.02905 -0.09522,0.06561 -0.13849,0.10614c-0.02924,0.0274 -0.05841,0.05255 -0.08264,0.0838c-0.03095,0.03998 -0.05286,0.08435 -0.07544,0.1308c-0.02167,0.04418 -0.04175,0.08667 -0.05445,0.13415c-0.00463,0.01752 -0.01641,0.03095 -0.01989,0.04901l-1.83106,9.48194c-0.00458,0.02386 0.00287,0.0462 0.00061,0.06994c-0.00512,0.05103 -0.00415,0.10028 0.00141,0.1521c0.00555,0.05054 0.01483,0.0976 0.03021,0.1452c0.00738,0.02332 0.00482,0.04731 0.01465,0.07026c0.01263,0.02941 0.03314,0.052 0.04889,0.07891c0.01391,0.02381 0.02624,0.04688 0.04266,0.06897c0.04681,0.06318 0.10077,0.11805 0.16284,0.16254c0.008,0.0058 0.01361,0.01373 0.02185,0.01917c0.07434,0.04907 0.15753,0.08026 0.24414,0.1004c0.00965,0.00226 0.01673,0.00903 0.02649,0.01092c0.04785,0.0091 0.09479,0.01331 0.14075,0.01343c0.00061,0 0.00122,0.00025 0.00183,0.00025c0.00012,0 0.00018,-0.00007 0.00031,-0.00007c0.00024,0 0.00042,0.00007 0.00067,0.00007c0.09625,0 0.18798,-0.02192 0.27435,-0.05634c0.00677,-0.00262 0.01385,-0.00134 0.02057,-0.00421l6.73096,-2.88471l8.22314,2.90229c0.00568,0.00201 0.01135,0.0011 0.01703,0.00293c0.07495,0.02459 0.15289,0.04004 0.23297,0.04004c0.09204,0 0.1803,-0.02192 0.26471,-0.05414c0.01025,-0.00385 0.021,-0.00208 0.03119,-0.00641l7,-3c0.02252,-0.00965 0.03692,-0.02857 0.05798,-0.0401c0.04468,-0.02442 0.08386,-0.052 0.12207,-0.08435c0.03711,-0.03137 0.0705,-0.06293 0.10041,-0.10022c0.02984,-0.03705 0.0534,-0.07556 0.0758,-0.11762zm-20.6557,-6.31964l3.21997,-1.57391l1.36273,1.85339l-0.51721,5.06446l-5.55743,2.38177l1.49194,-7.72571zm5.06671,5.37598l0.39801,-3.89691l2.68921,3.65747c0.1416,0.19238 0.3916,0.30566 0.62988,0.30566s0.46289,-0.11377 0.6045,-0.30566l2.38934,-3.25037l0.6206,6.07739l-7.33154,-2.58758zm8.33814,2.60821l-0.74524,-7.29785l0.76446,-1.03998l4.19782,-2.052l1.5307,7.92658l-5.74774,2.46325zm-4.63373,-19.66211c3.09961,0.00684 5.61816,2.53174 5.61816,5.63428c0,1.46436 -0.65234,2.69971 -1.20508,3.48438c-0.00195,0.00244 -0.0039,0.00439 -0.00586,0.00683l-4.40722,5.99561l-4.3916,-5.97315c-0.00293,-0.00341 -0.00489,-0.00683 -0.00782,-0.01025c-0.55664,-0.78418 -1.21972,-2.02832 -1.21972,-3.50342c0,-3.10254 2.51953,-5.62744 5.61914,-5.63428z"/>
  <path id="svg_3" fill="#ff0000" d="m13.03027,11.84717c1.74121,0 3.15821,-1.41895 3.15821,-3.16309s-1.417,-3.16308 -3.15821,-3.16308c-1.74218,0 -3.15918,1.41894 -3.15918,3.16308s1.417,3.16309 3.15918,3.16309zm0,-5.32617c1.19043,0 2.15821,0.97021 2.15821,2.16308s-0.96778,2.16309 -2.15821,2.16309s-2.15918,-0.97022 -2.15918,-2.16309s0.96875,-2.16308 2.15918,-2.16308z"/>
 </g>
</svg>