<svg width="512" height="512" xmlns="http://www.w3.org/2000/svg">

 <g>
  <title>background</title>
  <rect fill="none" id="canvas_background" height="402" width="582" y="-1" x="-1"/>
 </g>
 <g>
  <title>Layer 1</title>
  <path fill="#ff0000" fill-rule="nonzero" stroke-width="40" id="path3766-1" d="m255.71875,48.387817c-5.14903,0.0739 -10.2385,2.22892 -13.875,5.875l-183.28125,183.28125c-3.70103,3.70256 -5.85553,8.90549 -5.85553,14.14062c0,5.23514 2.1545,10.43807 5.85553,14.14063l54.9375,54.96875l0,122.8125c0.00051,5.23585 2.15613,10.43927 5.85843,14.14158c3.7023,3.70227 8.90572,5.85797 14.14157,5.85847l65,0c5.23585,-0.0005 10.43927,-2.1562 14.14157,-5.85847c3.7023,-3.70231 5.85792,-8.90573 5.85843,-14.14158l0,-145l75,0l0,145c0.00051,5.23585 2.15613,10.43927 5.85843,14.14158c3.7023,3.70227 8.90572,5.85797 14.14157,5.85847l65,0c5.23585,-0.0005 10.43927,-2.1562 14.14157,-5.85847c3.7023,-3.70231 5.85792,-8.90573 5.85843,-14.14158l0,-122.84375l54.9375,-54.9375c3.70103,-3.70256 5.85553,-8.90549 5.85553,-14.14063c0,-5.23513 -2.1545,-10.43806 -5.85553,-14.14062l-183.28125,-183.28125c-3.76894,-3.77878 -9.10096,-5.94852 -14.4375,-5.875z"/>
 </g>
</svg>