<svg width="32" height="32" xmlns="http://www.w3.org/2000/svg">

 <g>
  <title>background</title>
  <rect fill="none" id="canvas_background" height="34" width="34" y="-1" x="-1"/>
 </g>
 <g>
  <title>Layer 1</title>
  <path stroke-width="0" id="Border_Arrow_Right" fill-rule="evenodd" fill="#ff0000" d="m31.7,15.219l-14.944,-14.944c-0.202,-0.202 -0.467,-0.301 -0.731,-0.299c-0.008,0 -0.014,-0.004 -0.022,-0.004l-15,0c-0.552,0 -1,0.448 -1,1c0,0.008 0.004,0.014 0.004,0.022c-0.001,0.264 0.098,0.529 0.299,0.731l14.246,14.246l-14.276,14.276c-0.401,0.401 -0.401,1.051 0,1.452c0.238,0.238 0.561,0.317 0.87,0.273l14.711,0c0.309,0.044 0.632,-0.035 0.87,-0.273l14.972,-14.972c0.208,-0.208 0.303,-0.482 0.295,-0.755c0.008,-0.271 -0.087,-0.545 -0.294,-0.753zm-16.149,14.753l-12.096,0l13.244,-13.244c0.208,-0.208 0.303,-0.482 0.295,-0.755c0.008,-0.272 -0.087,-0.546 -0.295,-0.754l-13.246,-13.247l12.101,0l13.999,13.999l-14.002,14.001z" clip-rule="evenodd"/>
  <path id="svg_8" d="m1.690378,1.146402c0,0 14.54531,0 14.538417,-0.001632c0.006893,0.001632 14.484864,14.681621 14.477971,14.679989c0.006893,0.001632 -14.673096,15.220337 -14.679989,15.218704c0.006893,0.001632 -14.134381,0.001632 -14.134381,0.001632c0,0 13.131183,-14.208613 13.12429,-14.210246c0.006893,0.001632 0.747626,-1.345156 0.740733,-1.346788c0.006893,0.001632 -14.067042,-14.34166 -14.067042,-14.34166z" stroke-opacity="null" stroke-width="0" stroke="null" fill="#ff0000"/>
 </g>
</svg>